<?xml version="1.0" encoding="utf-8"?>
<!-- Generator: Adobe Illustrator 21.0.2, SVG Export Plug-In . SVG Version: 6.00 Build 0)  -->
<svg version="1.1" id="Layer_1" xmlns="http://www.w3.org/2000/svg" xmlns:xlink="http://www.w3.org/1999/xlink" x="0px" y="0px"
	 viewBox="0 0 30.2 31.4" style="enable-background:new 0 0 30.2 31.4;" xml:space="preserve">
<style type="text/css">
	.st0{clip-path:url(#SVGID_2_);}
	.st1{fill:#76003F;}
	.st2{fill:#DF4B00;}
	.st3{fill:#FFB705;}
	.st4{fill:#FF7543;}
	.st5{opacity:0.19;fill:#76003F;enable-background:new    ;}
	.st6{fill:#FFFFFF;}
	.st7{fill:#353642;}
	.st8{opacity:0.33;fill:#76003F;enable-background:new    ;}
</style>
<g id="Background">
</g>
<g>
	<defs>
		<rect id="SVGID_1_" x="0" y="-0.3" width="30.3" height="32"/>
	</defs>
	<clipPath id="SVGID_2_">
		<use xlink:href="#SVGID_1_"  style="overflow:visible;"/>
	</clipPath>
	<g class="st0">
		<g>
			<path class="st1" d="M8.5,42.4c0,0-2.7,3.9-2.2,12.9c0.6,9,7.8,0,7.8,0l-1.3-11.7L8.5,42.4z"/>
			<path class="st1" d="M44.6,42.4c0,0,2.7,3.9,2.2,12.9c-0.6,9-7.8,0-7.8,0l1.3-11.7L44.6,42.4z"/>
			<path class="st2" d="M43.2,41.5l-16.6,4.2L9.9,41.4c0,0-1.5,11.8,0,16.8h16.6h16.6C44.7,53.2,43.2,41.5,43.2,41.5z"/>
			<g>
				<g>
					<path class="st3" d="M38,11.1c0,0,3.9-5.1-1.7-11.1c0,0,4.7,0.2,7.5,4.2c2.7,3.9-0.4,9.1-0.4,9.1"/>
					<path class="st1" d="M37.5,10.9c0.1-2.3,1.8-2.7,4.2-1.8c2.4,0.8,4.3,0.8,3.1,3.8"/>
				</g>
				<g>
					<path class="st3" d="M15.4,11.1c0,0-3.9-5.1,1.7-11.1c0,0-4.7,0.2-7.5,4.2c-2.7,3.9,0.4,9.1,0.4,9.1"/>
					<path class="st1" d="M15.9,10.9c-0.1-2.3-1.8-2.7-4.2-1.8c-2.4,0.8-4.3,0.8-3.1,3.8"/>
				</g>
				<path class="st4" d="M35.1,47H18.3c-10,0-18.2-8.2-18.2-18.2v-0.7c0-10,8.2-18.2,18.2-18.2h16.8c10,0,18.2,8.2,18.2,18.2v0.7
					C53.2,38.8,45.1,47,35.1,47z"/>
				<g>
					
						<ellipse transform="matrix(1.064814e-02 -0.9999 0.9999 1.064814e-02 15.3173 68.3374)" class="st5" cx="42.2" cy="26.4" rx="6.5" ry="6.5"/>
					
						<ellipse transform="matrix(1.065029e-02 -0.9999 0.9999 1.065029e-02 16.4421 67.2832)" class="st6" cx="42.2" cy="25.3" rx="6.5" ry="6.5"/>
					
						<ellipse transform="matrix(1.064598e-02 -0.9999 0.9999 1.064598e-02 16.4423 67.2833)" class="st7" cx="42.2" cy="25.3" rx="3.4" ry="3.4"/>
					<path class="st2" d="M36.1,22.9c1-2.5,3.4-4.2,6.2-4.1c2.8,0,5.2,1.8,6.1,4.3L36.1,22.9z"/>
				</g>
				<g>
					
						<ellipse transform="matrix(1.064814e-02 -0.9999 0.9999 1.064814e-02 -15.3617 37.3344)" class="st5" cx="11.2" cy="26.4" rx="6.5" ry="6.5"/>
					
						<ellipse transform="matrix(1.065029e-02 -0.9999 0.9999 1.065029e-02 -14.2369 36.2801)" class="st6" cx="11.2" cy="25.3" rx="6.5" ry="6.5"/>
					
						<ellipse transform="matrix(1.064603e-02 -0.9999 0.9999 1.064603e-02 -14.2369 36.2802)" class="st7" cx="11.2" cy="25.3" rx="3.4" ry="3.4"/>
					<path class="st2" d="M5.1,22.9c1-2.5,3.4-4.2,6.2-4.1s5.2,1.8,6.1,4.3L5.1,22.9z"/>
				</g>
				<path class="st1" d="M39.4,40H14c-1.5,0-2.8-1.3-2.8-2.8l0,0c0-1.5,1.3-2.8,2.8-2.8h25.4c1.5,0,2.8,1.3,2.8,2.8l0,0
					C42.2,38.8,41,40,39.4,40z"/>
				<polygon class="st6" points="14.8,34.5 16.1,36.9 17.5,34.5 				"/>
				<polygon class="st6" points="18.3,34.5 19.7,36.9 21,34.5 				"/>
				<polygon class="st6" points="21.8,34.5 23.2,36.9 24.6,34.5 				"/>
				<polygon class="st6" points="25.3,34.5 26.7,36.9 28.1,34.5 				"/>
				<polygon class="st6" points="28.9,34.5 30.2,36.9 31.6,34.5 				"/>
				<polygon class="st6" points="32.4,34.5 33.7,36.9 35.1,34.5 				"/>
				<polygon class="st6" points="35.9,34.5 37.2,36.9 38.6,34.5 				"/>
				<path class="st2" d="M33.5,9.9l-6.9-0.1l-6.9,0.1c0,0,7.2,8.9,2.2,24.6h4.7h4.7C26.4,19.2,33.5,9.9,33.5,9.9z"/>
			</g>
			<path class="st8" d="M34.9,58.4c0.3-0.9,0.5-1.8,0.5-2.8c0-4.1-3.4-7.4-7.4-7.4h-2.7c-4.1,0-7.4,3.4-7.4,7.4c0,1,0.2,1.9,0.5,2.8
				H34.9z"/>
			<g>
				<path class="st4" d="M24.5,59.7H6.7c-0.8,0-1.4-0.6-1.4-1.4v-3.9C5.3,53.6,6,53,6.7,53h17.8c0.8,0,1.4,0.6,1.4,1.4v3.9
					C25.9,59,25.3,59.7,24.5,59.7z"/>
				<path class="st2" d="M9.8,59.6c0.1-0.2,0.1-0.4,0.1-0.7c0-1-0.8-1.8-1.8-1.8S6.4,58,6.4,58.9c0,0.3,0.1,0.5,0.1,0.7H9.8z"/>
				<path class="st2" d="M14,59.6c0.1-0.2,0.1-0.4,0.1-0.7c0-1-0.8-1.8-1.8-1.8s-1.8,0.8-1.8,1.8c0,0.3,0.1,0.5,0.1,0.7H14z"/>
				<path class="st2" d="M18.2,59.6c0.1-0.2,0.1-0.4,0.1-0.7c0-1-0.8-1.8-1.8-1.8s-1.8,0.8-1.8,1.8c0,0.3,0.1,0.5,0.1,0.7H18.2z"/>
			</g>
			<g>
				<path class="st4" d="M46.4,59.7H28.6c-0.8,0-1.4-0.6-1.4-1.4v-3.9c0-0.8,0.6-1.4,1.4-1.4h17.8c0.8,0,1.4,0.6,1.4,1.4v3.9
					C47.8,59,47.2,59.7,46.4,59.7z"/>
				<g>
					<path class="st2" d="M43.3,59.6c-0.1-0.2-0.1-0.4-0.1-0.7c0-1,0.8-1.8,1.8-1.8c1,0,1.8,0.8,1.8,1.8c0,0.3-0.1,0.5-0.1,0.7H43.3
						z"/>
					<path class="st2" d="M39.2,59.6c-0.1-0.2-0.1-0.4-0.1-0.7c0-1,0.8-1.8,1.8-1.8s1.8,0.8,1.8,1.8c0,0.3-0.1,0.5-0.1,0.7H39.2z"/>
					<path class="st2" d="M35,59.6c-0.1-0.2-0.1-0.4-0.1-0.7c0-1,0.8-1.8,1.8-1.8s1.8,0.8,1.8,1.8c0,0.3-0.1,0.5-0.1,0.7H35z"/>
				</g>
			</g>
		</g>
	</g>
</g>
</svg>
