<?xml version="1.0" encoding="utf-8"?>
<!-- Generator: Adobe Illustrator 21.0.2, SVG Export Plug-In . SVG Version: 6.00 Build 0)  -->
<svg version="1.1" id="Layer_1" xmlns="http://www.w3.org/2000/svg" xmlns:xlink="http://www.w3.org/1999/xlink" x="0px" y="0px"
	 viewBox="0 0 300 300" style="enable-background:new 0 0 300 300;" xml:space="preserve">
<style type="text/css">
	.st0{fill:#90BD21;}
	.st1{fill:#647A08;}
	.st2{fill:#FFA300;}
	.st3{fill:#FFD664;}
	.st4{fill:#BE9115;}
	.st5{fill:#FFD904;}
	.st6{fill:#FFE948;}
	.st7{opacity:0.57;fill:#FFFFFF;}
	.st8{fill:#FFFFFF;}
	.st9{fill:#253782;}
	.st10{fill:#490808;}
	.st11{fill:#FFFCC5;}
	.st12{opacity:0.48;fill:#FFA9A9;}
</style>
<g>
	<g>
		<g>
			<g>
				<path class="st0" d="M186.4,53.8c0,0,20.8-11.3,23.9-7.8c4.7,5.4-9,23.5-11.5,26.3L186.4,53.8z"/>
				<g>
					<g>
						<g>
							<g>
								<path class="st1" d="M202.9,46.9c0,0,0.6,0.1,1.5,0.4c0.2,0.1,0.4,0.2,0.7,0.3c0.2,0.1,0.5,0.2,0.7,0.4
									c0.2,0.2,0.5,0.3,0.7,0.5c0.2,0.2,0.5,0.4,0.7,0.6c0.2,0.2,0.4,0.4,0.7,0.7c0.2,0.2,0.4,0.5,0.6,0.7
									c0.2,0.2,0.3,0.5,0.4,0.7c0.1,0.2,0.2,0.5,0.3,0.7c0.2,0.4,0.2,0.8,0.3,1.1c0,0.3,0,0.4,0,0.4s-0.1-0.1-0.3-0.3
									c-0.2-0.2-0.4-0.5-0.7-0.8c-0.2-0.2-0.3-0.3-0.5-0.5c-0.2-0.2-0.4-0.3-0.5-0.5c-0.2-0.2-0.4-0.4-0.6-0.5
									c-0.2-0.2-0.4-0.4-0.6-0.6c-0.2-0.2-0.4-0.4-0.6-0.5c-0.2-0.2-0.4-0.4-0.6-0.5c-0.2-0.2-0.4-0.4-0.6-0.5
									c-0.2-0.2-0.4-0.3-0.5-0.5C203.3,47.4,202.9,46.9,202.9,46.9z"/>
							</g>
						</g>
					</g>
				</g>
				<g>
					<g>
						<g>
							<g>
								<path class="st1" d="M194.8,50.6c0,0,0.2,0,0.7,0.1c0.4,0.1,1,0.2,1.7,0.5c0.3,0.2,0.7,0.3,1.1,0.5c0.4,0.2,0.7,0.4,1.1,0.7
									c0.4,0.3,0.7,0.6,1.1,0.8c0.4,0.3,0.7,0.6,1.1,0.9c0.4,0.3,0.7,0.7,1,1c0.3,0.3,0.6,0.7,0.9,1.1c0.3,0.4,0.6,0.7,0.8,1.1
									c0.2,0.4,0.4,0.7,0.6,1c0.3,0.7,0.5,1.3,0.5,1.7c0,0.4-0.1,0.7,0,0.7c0,0-0.1-0.2-0.3-0.6c-0.2-0.4-0.5-0.8-0.9-1.4
									c-0.2-0.3-0.5-0.5-0.7-0.8c-0.3-0.3-0.6-0.6-0.9-0.9c-0.3-0.3-0.6-0.6-1-0.9c-0.3-0.3-0.7-0.6-1-0.9c-0.3-0.3-0.7-0.6-1-0.9
									c-0.3-0.3-0.7-0.6-1-0.9c-0.3-0.3-0.6-0.6-0.9-0.8c-0.3-0.3-0.6-0.5-0.9-0.7C195.7,51,194.8,50.6,194.8,50.6z"/>
							</g>
						</g>
					</g>
				</g>
			</g>
			<g>
				<path class="st0" d="M203.8,73.4c0,0,21-10.1,23.7-6.2c4.3,6.2-14.3,22.2-16.8,25L203.8,73.4z"/>
				<g>
					<g>
						<g>
							<g>
								<path class="st1" d="M210.1,71c0,0,0.2,0.1,0.6,0.3c0.4,0.2,0.9,0.6,1.5,1.1c0.3,0.3,0.6,0.6,0.8,0.9
									c0.3,0.4,0.6,0.7,0.8,1.1c0.3,0.4,0.5,0.8,0.7,1.3c0.2,0.4,0.4,0.9,0.7,1.4c0.2,0.5,0.4,0.9,0.6,1.4
									c0.2,0.5,0.3,0.9,0.5,1.4c0.2,0.4,0.3,0.9,0.4,1.3c0.1,0.4,0.2,0.8,0.3,1.2c0.1,0.8,0.2,1.4,0.1,1.9c0,0.2-0.1,0.4-0.1,0.5
									c-0.1,0.1-0.1,0.2-0.1,0.2s0.1-0.3-0.1-0.7c-0.1-0.4-0.4-1-0.6-1.6c-0.2-0.3-0.3-0.7-0.5-1.1c-0.2-0.4-0.4-0.8-0.6-1.2
									c-0.2-0.4-0.4-0.8-0.6-1.3c-0.2-0.4-0.4-0.9-0.6-1.3c-0.2-0.5-0.4-0.9-0.6-1.3c-0.2-0.4-0.4-0.9-0.6-1.3
									c-0.2-0.4-0.4-0.8-0.6-1.2c-0.2-0.4-0.4-0.7-0.6-1c-0.4-0.6-0.7-1.1-1-1.4C210.3,71.2,210.1,71,210.1,71z"/>
							</g>
						</g>
					</g>
				</g>
				<g>
					<g>
						<g>
							<g>
								<path class="st1" d="M218,68.2c0,0,0.6,0.4,1.4,0.9c0.2,0.1,0.4,0.3,0.7,0.5c0.2,0.2,0.5,0.4,0.7,0.6
									c0.2,0.2,0.5,0.5,0.7,0.7c0.2,0.3,0.4,0.6,0.6,0.9c0.2,0.3,0.4,0.6,0.5,1c0.2,0.3,0.2,0.7,0.3,1c0.1,0.3,0.1,0.6,0.2,0.9
									c0.1,0.3,0.1,0.6,0.1,0.8c0.1,0.5,0.1,0.9,0.2,1.2c0,0.3,0.1,0.5,0.1,0.5s-0.1-0.1-0.4-0.3c-0.2-0.2-0.5-0.6-0.7-1
									c-0.1-0.2-0.3-0.5-0.4-0.7c-0.1-0.3-0.2-0.5-0.4-0.8c-0.1-0.3-0.3-0.5-0.4-0.8c-0.1-0.3-0.3-0.5-0.5-0.8
									c-0.2-0.3-0.3-0.5-0.5-0.8c-0.2-0.3-0.4-0.5-0.5-0.7c-0.2-0.2-0.4-0.5-0.5-0.7c-0.2-0.2-0.3-0.5-0.5-0.7
									C218.3,68.8,218,68.2,218,68.2z"/>
							</g>
						</g>
					</g>
				</g>
			</g>
			<g>
				<path class="st0" d="M114.4,70.6c0,0-11.3-18.3-7.2-23c3.5-4,13.9,4.3,20.4,6.3L114.4,70.6z"/>
				<g>
					<g>
						<g>
							<g>
								<path class="st1" d="M111.1,62.6c0,0-0.1-0.2-0.1-0.6c0-0.4,0-0.9,0.2-1.6c0.1-0.3,0.2-0.7,0.3-1c0.1-0.3,0.3-0.7,0.5-1.1
									c0.2-0.4,0.4-0.7,0.6-1.1c0.2-0.4,0.5-0.7,0.8-1c0.3-0.3,0.6-0.7,0.9-1c0.3-0.3,0.6-0.6,0.9-0.8c0.3-0.3,0.6-0.5,1-0.7
									c0.3-0.2,0.6-0.4,0.9-0.5c0.6-0.3,1.1-0.4,1.5-0.5c0.4,0,0.6,0,0.6,0c0,0,0,0-0.1,0.1c-0.1,0-0.2,0.1-0.4,0.2
									c-0.3,0.2-0.7,0.5-1.1,0.9c-0.2,0.2-0.5,0.4-0.7,0.7c-0.2,0.3-0.5,0.5-0.8,0.8c-0.3,0.3-0.5,0.6-0.8,0.9
									c-0.3,0.3-0.5,0.6-0.8,0.9c-0.3,0.3-0.5,0.6-0.8,0.9c-0.3,0.3-0.5,0.6-0.7,0.9c-0.2,0.3-0.4,0.6-0.6,0.9
									c-0.2,0.3-0.4,0.6-0.5,0.8C111.3,61.7,111.1,62.6,111.1,62.6z"/>
							</g>
						</g>
					</g>
				</g>
				<g>
					<g>
						<g>
							<g>
								<path class="st1" d="M107.9,54.7c0,0-0.1-0.1-0.2-0.3c-0.1-0.2-0.2-0.6-0.2-1c0-0.2,0-0.5,0.1-0.7c0.1-0.2,0.1-0.5,0.3-0.7
									c0.1-0.2,0.2-0.5,0.4-0.7c0.1-0.2,0.3-0.4,0.5-0.6c0.2-0.2,0.4-0.4,0.5-0.6c0.2-0.2,0.4-0.3,0.6-0.5
									c0.2-0.2,0.4-0.3,0.6-0.4c0.2-0.1,0.4-0.2,0.6-0.3c0.4-0.2,0.7-0.2,1-0.2c0.3,0,0.4,0.1,0.4,0.1s-0.1,0.1-0.3,0.2
									c-0.2,0.2-0.4,0.4-0.6,0.6c-0.1,0.1-0.2,0.3-0.4,0.4c-0.1,0.2-0.3,0.3-0.4,0.5c-0.2,0.2-0.3,0.3-0.4,0.5
									c-0.2,0.2-0.3,0.3-0.5,0.5c-0.1,0.2-0.3,0.3-0.4,0.5c-0.2,0.2-0.3,0.3-0.4,0.5c-0.1,0.2-0.3,0.3-0.4,0.5
									c-0.1,0.2-0.2,0.3-0.3,0.4c-0.2,0.3-0.3,0.5-0.3,0.7C107.9,54.5,107.9,54.7,107.9,54.7z"/>
							</g>
						</g>
					</g>
				</g>
			</g>
			<g>
				<path class="st0" d="M102.6,94.5c0,0-20.9-23.2-16.8-27.9c4.6-5.2,19.9,6.2,26.4,8.2L102.6,94.5z"/>
				<g>
					<g>
						<g>
							<g>
								<path class="st1" d="M97.6,86.6c0,0-0.3-0.9-0.4-2.3c0-0.4,0-0.7,0-1.1c0-0.4,0-0.8,0.1-1.3c0.1-0.4,0.1-0.9,0.2-1.4
									c0.1-0.5,0.2-0.9,0.4-1.4c0.2-0.5,0.3-0.9,0.5-1.3c0.2-0.4,0.4-0.8,0.6-1.2c0.2-0.4,0.4-0.8,0.7-1.1
									c0.2-0.3,0.5-0.7,0.7-0.9c0.5-0.5,1-0.9,1.4-1.1c0.2-0.1,0.3-0.2,0.5-0.2c0.1,0,0.2-0.1,0.2-0.1s0,0-0.1,0.1
									c-0.1,0.1-0.2,0.2-0.3,0.4c-0.2,0.3-0.5,0.8-0.9,1.4c-0.1,0.3-0.3,0.6-0.5,1c-0.1,0.4-0.3,0.7-0.5,1.1
									c-0.1,0.4-0.3,0.8-0.5,1.2c-0.2,0.4-0.3,0.8-0.4,1.3c-0.2,0.4-0.3,0.8-0.4,1.3c-0.1,0.4-0.2,0.8-0.3,1.2
									c-0.1,0.4-0.2,0.8-0.3,1.2c-0.1,0.4-0.1,0.7-0.2,1.1C97.8,85.7,97.6,86.6,97.6,86.6z"/>
							</g>
						</g>
					</g>
				</g>
				<g>
					<g>
						<g>
							<g>
								<path class="st1" d="M90.8,76.8c0,0-0.1-0.1-0.2-0.4c-0.1-0.3-0.2-0.7-0.2-1.1c0-0.2,0-0.5,0.1-0.8c0-0.3,0.1-0.6,0.2-0.8
									c0.1-0.3,0.2-0.6,0.4-0.8c0.1-0.3,0.3-0.5,0.5-0.8c0.2-0.2,0.4-0.5,0.6-0.7c0.2-0.2,0.4-0.4,0.6-0.6
									c0.2-0.2,0.4-0.4,0.6-0.5c0.2-0.2,0.4-0.3,0.6-0.4c0.4-0.3,0.7-0.5,0.9-0.6c0.2-0.1,0.4-0.2,0.4-0.2s-0.1,0.1-0.2,0.4
									c-0.1,0.2-0.3,0.6-0.5,1c-0.1,0.2-0.2,0.4-0.4,0.6c-0.1,0.2-0.3,0.4-0.4,0.6c-0.2,0.2-0.3,0.4-0.5,0.7
									c-0.2,0.2-0.3,0.4-0.5,0.7c-0.2,0.2-0.3,0.4-0.5,0.7c-0.2,0.2-0.3,0.4-0.4,0.7c-0.1,0.2-0.3,0.4-0.4,0.6
									c-0.1,0.2-0.2,0.4-0.3,0.6c-0.2,0.4-0.3,0.7-0.3,1C90.9,76.7,90.8,76.8,90.8,76.8z"/>
							</g>
						</g>
					</g>
				</g>
			</g>
		</g>
		<g>
			<g>
				<path class="st2" d="M98.9,160.9c-0.4-0.6-3.4-1.3-4.2-1.7c-5.8-3.2-8.9-9.1-14.5-12.6c-5.4-3.4-12-4.9-18.3-3.9
					c-17.3,2.7-26,20.8-20.1,36.5c2.1,5.6,6,9.9,8.3,15.4c1.5,3.7,2.6,8.8,0.9,12.7c-0.8,1.9-4.9,6.9-2.2,8.9
					c2,1.5,18.4-4.3,16.1-18.9s-5.4-23.5,0.8-25.2S86,202,101.8,194.8C117.6,187.7,99,161,98.9,160.9z"/>
				<g>
					<path class="st3" d="M64.8,197.4c-2.3-14.5-5.4-23.5,0.8-25.2c6.1-1.8,20.4,29.8,36.2,22.7c2.7-1.2,4.4-3,5.3-5.1
						c-5.3-1-13.5-3.1-17.5-6.7c-6.2-5.5-16.5-18.6-24.2-19.2c-7.8-0.6-8.8,9.1-9.3,13.3c-0.5,4.2,5.2,18.2,4,23.8
						c-1.2,5.6-10.9,12.4-7.6,15C57.9,214.2,66.6,208.2,64.8,197.4z"/>
				</g>
				<g>
					<path class="st4" d="M80.3,174.8c3-1.7-2.7-9.4-5.4-6.9C72.2,170.4,78.5,175.8,80.3,174.8z"/>
					<path class="st4" d="M62.1,163.2c0.2,2.5,6.1,4.5,6.7,1.2C69.4,161.1,61.9,160.7,62.1,163.2z"/>
					<path class="st4" d="M58.3,168.5c1.9,0.3,0.4,8.2-2.1,8.6C53.7,177.5,55.4,168.1,58.3,168.5z"/>
					<path class="st4" d="M57.1,186.2c3.7,0.1,3.7,4.1,2.1,5.2C57.5,192.6,55,186.2,57.1,186.2z"/>
					<path class="st4" d="M79.8,185.2c1.9-1.1,11,4.5,8.7,7.8S77.9,186.3,79.8,185.2z"/>
					<path class="st4" d="M85.6,180.8c1.9-2.7,9.6,1.1,8.2,4.4C92.5,188.4,83.7,183.4,85.6,180.8z"/>
					<path class="st4" d="M70.1,174.5c1.7-1.3,6.7,3,5,5.4S68.4,175.8,70.1,174.5z"/>
					<path class="st4" d="M64.2,172.8c0.6,1.6,4.5,1.6,4.7,0C69.3,169.1,63.5,171.2,64.2,172.8z"/>
					<path class="st4" d="M61.4,179.9c1.8,1.9,3-4.7,1.5-5.8C61.5,172.9,59.2,177.6,61.4,179.9z"/>
					<path class="st4" d="M63.9,191.6c2,0.6,0.6-5.1-1-5.4C61.3,185.9,61.8,191,63.9,191.6z"/>
				</g>
			</g>
			<g>
				<path class="st2" d="M208.1,147.3c0,0,20.1,2.2,25.7-12.6s0.4-18.4-4.1-25.7c-5.6-9.1-6.6-20.6-1-24.8c7.9-5.8,11.2-0.1,9.2,4.7
					c-2,4.7-0.6,13,7.1,20.1c10.2,9.3,17.1,34.9,2.3,53.2s-34.8,20.4-34.8,20.4L208.1,147.3z"/>
				<g>
					<path class="st3" d="M247.4,162.2c14.8-18.4,7.9-43.9-2.3-53.2c-7.8-7-9.2-15.3-7.1-20.1c0.2-0.5,0.4-1.1,0.5-1.6
						c-1.2-1-2.4-1.3-3.7-0.5c-5.4,3.3-1.1,12.7,4,19.3c5,6.5,10.2,19.9,9.9,27.5c-0.3,7.6-6.6,19.9-19.7,25.1
						c-6.4,2.5-13.2,4.7-18.5,6.2l2.2,17.7C212.6,182.6,232.6,180.6,247.4,162.2z"/>
				</g>
				<g>
					<path class="st4" d="M224.4,163c1.5,3.7,11.3-0.8,8.8-5.4C230.7,153,222.3,157.8,224.4,163z"/>
					<path class="st4" d="M237.8,153.8c-3.4-4.3,1.7-10.3,5.5-7.6C247.2,148.8,240.5,157.3,237.8,153.8z"/>
					<path class="st4" d="M246.2,139.9c-4.2-1.1-0.2-11.6,3.3-10.2C252.9,131.1,250.6,141,246.2,139.9z"/>
					<path class="st4" d="M247.8,122.8c2.3-1-0.6-7.4-3.3-6.8C241.8,116.7,245.5,123.8,247.8,122.8z"/>
					<path class="st4" d="M240.6,110.2c2-0.7-1.7-6.9-3.9-5.4C234.5,106.4,239,110.8,240.6,110.2z"/>
					<path class="st4" d="M233.6,99.5c1.3-0.4,1.6-4.5,0-5S232.3,99.9,233.6,99.5z"/>
					<path class="st4" d="M228.8,176.2c1.2,3.2,10.9-2.9,9.8-5.2C236.7,166.8,226.8,170.9,228.8,176.2z"/>
					<path class="st4" d="M247.6,161.3c2.2,2.1,8.3-5.4,6.1-8.2C251.4,150.4,245.4,159.2,247.6,161.3z"/>
					<path class="st4" d="M255.7,141.2c2.5,0.8,3.4-11.6,0-11.6C252.3,129.7,253.2,140.5,255.7,141.2z"/>
					<path class="st4" d="M252.6,121.3c1.6-0.4-0.8-6.2-2.5-6S251,121.7,252.6,121.3z"/>
					<path class="st4" d="M244.4,108.4c1.5-0.2-1.9-5.7-3.8-4.5C238.7,105.1,242.8,108.6,244.4,108.4z"/>
					<path class="st4" d="M236.7,93.6c-1.6,0-0.5,4.9,1.1,4.6C239.5,97.8,238.3,93.6,236.7,93.6z"/>
				</g>
			</g>
		</g>
		<g>
			<path class="st2" d="M130,236.4c0,0,0.2,17-0.8,21.4c0,0-3.3-8-12.8-8.2s-15.1,13-13.8,18.2c1.3,5.2,31.7,4.2,33.6,2.5
				c1.9-1.7,1.7-28.7,0-32.3L130,236.4z"/>
			<path class="st2" d="M177.4,237.9c0,0,0,14.5,1.1,21c8.2-7.1,19.5-5,22.9,2.5c2.5,5.4,0.4,7.5,0,8.4c-0.4,1-28.7,3.6-30.6,0
				c-1.9-3.6,0.6-29.7,1-30.1S177.4,237.9,177.4,237.9z"/>
		</g>
		<g>
			<path class="st5" d="M160.6,38.7c0,0-3.1-9-8.8-10.4c0,0,1.9,6.1,0,10.4c0,0-7.3-3.3-14.1-0.1c0,0,3.1,4,3.1,5.9
				c0,0-26.8,6.6-40.5,48.8s-11.9,118.3,18.4,140.8s73,10,87.2-11.2c19.9-29.7,9.3-125.7,4.6-143.1c-4.5-16.8-17.3-27.5-24.5-29.9
				c0,0,1.9-4.7,4.2-6.6c-2.2-1.5-8.3-2.7-18.4,0.4c0.8-5,2.7-8,4.6-10.7C176.2,33,165.1,32.5,160.6,38.7z"/>
			<g>
				<path class="st6" d="M159.6,50.9c39.4,0.7,50.7,28.9,51.7,96.4c0.8,54.6-7.5,89.1-51.7,92.3c-39.5,2.8-56.8-27.7-57.8-79.3
					C100.8,108.7,111.9,50,159.6,50.9z"/>
			</g>
			<ellipse class="st7" cx="157" cy="205.6" rx="37.6" ry="27.3"/>
		</g>
		<g>
			<g>
				<g>
					<circle class="st8" cx="128.8" cy="107.1" r="20.6"/>
					<g>
						<circle class="st9" cx="125.6" cy="113.4" r="13.4"/>
						<circle class="st8" cx="122.4" cy="109.5" r="8.1"/>
					</g>
				</g>
				<g>
					<circle class="st8" cx="181.9" cy="109" r="20.6"/>
					<g>
						<circle class="st9" cx="178.6" cy="115.3" r="13.4"/>
						<circle class="st8" cx="175.5" cy="111.4" r="8.1"/>
					</g>
				</g>
			</g>
			<g>
				<path class="st10" d="M144.2,129.7c3.7-0.2,6.6,4.2,10.2,3.9c3.6-0.4,8-7.1,12.8-3.6c4.8,3.4,3,15.3-11.3,17.2
					C140.3,149.2,133.1,130.2,144.2,129.7z"/>
				<g>
					<path class="st11" d="M163.9,138.1c2,0.1,3.4-4.6,4.1-7.6c-0.2-0.2-0.5-0.4-0.7-0.6c-3.6-2.6-7,0.6-10,2.4
						C158.8,134.4,161.8,138,163.9,138.1z"/>
					<path class="st11" d="M147.2,138.9c2,0.3,4.1-3.2,5.2-5.6c-2.7-0.9-5.2-3.7-8.2-3.6c-0.7,0-1.3,0.1-1.8,0.3
						C143.2,132.9,144.9,138.5,147.2,138.9z"/>
				</g>
			</g>
			<g>
				<circle class="st12" cx="117.1" cy="147.3" r="13.6"/>
				<circle class="st12" cx="192.2" cy="147.3" r="13.6"/>
			</g>
		</g>
	</g>
</g>
</svg>
