<?xml version="1.0" encoding="utf-8"?>
<!-- Generator: Adobe Illustrator 21.0.2, SVG Export Plug-In . SVG Version: 6.00 Build 0)  -->
<svg version="1.1" id="Layer_1" xmlns="http://www.w3.org/2000/svg" xmlns:xlink="http://www.w3.org/1999/xlink" x="0px" y="0px"
	 viewBox="0 0 300 300" style="enable-background:new 0 0 300 300;" xml:space="preserve">
<style type="text/css">
	.st0{fill:#437F04;}
	.st1{fill:#2C5102;}
	.st2{fill:#62BF00;}
	.st3{fill:#5AA800;}
	.st4{fill:#6ECC00;}
	.st5{fill:#569E02;}
	.st6{fill:#FAEB69;}
	.st7{clip-path:url(#SVGID_2_);fill:#FFFFFF;}
	.st8{opacity:0.51;fill:#D45614;}
	.st9{fill:#498E00;}
	.st10{fill:#9DFF1F;}
</style>
<g>
	<g>
		<g>
			<polygon class="st0" points="87.3,139.2 64.3,119.3 92.6,120.6 			"/>
			<g>
				<g>
					<g>
						<g>
							<path class="st1" d="M83.4,121.2c0,0-0.1,0.2-0.2,0.4c-0.1,0.3-0.3,0.6-0.4,1.1c-0.1,0.2-0.1,0.5-0.2,0.7
								c-0.1,0.3-0.1,0.5-0.2,0.8c-0.1,0.3-0.1,0.6-0.2,0.9c-0.1,0.3-0.1,0.6-0.2,0.9c0,0.3-0.1,0.6-0.1,0.9c0,0.3-0.1,0.6-0.1,0.9
								c0,0.3-0.1,0.6-0.1,0.8c0,0.3-0.1,0.5-0.1,0.8c0,0.5-0.1,0.9-0.1,1.2c0,0.3,0,0.5,0,0.5s-0.1-0.1-0.3-0.4
								c-0.2-0.3-0.4-0.7-0.5-1.2c-0.1-0.3-0.1-0.5-0.2-0.8c0-0.3-0.1-0.6-0.1-0.9c0-0.3,0-0.7,0-1c0-0.3,0.1-0.7,0.1-1
								c0.1-0.3,0.1-0.7,0.2-1c0.1-0.3,0.2-0.6,0.3-0.9c0.1-0.3,0.3-0.6,0.4-0.8c0.1-0.3,0.3-0.5,0.5-0.7c0.3-0.4,0.7-0.7,0.9-0.9
								C83.3,121.3,83.4,121.2,83.4,121.2z"/>
						</g>
					</g>
				</g>
			</g>
			<g>
				<g>
					<g>
						<g>
							<path class="st1" d="M74.8,120.6c0,0-0.3,0.4-0.4,0.9c-0.1,0.1-0.1,0.3-0.1,0.4c0,0.1-0.1,0.3-0.1,0.4c0,0.1-0.1,0.3-0.1,0.5
								c0,0.2-0.1,0.3-0.1,0.5c0,0.2-0.1,0.3-0.1,0.5c0,0.2-0.1,0.3-0.1,0.5c0,0.2-0.1,0.3-0.2,0.5c-0.1,0.2-0.1,0.3-0.2,0.4
								c-0.1,0.3-0.3,0.5-0.4,0.7c-0.1,0.1-0.2,0.2-0.2,0.2s0-0.1-0.1-0.3c-0.1-0.2-0.1-0.4-0.2-0.7c0-0.1-0.1-0.3-0.1-0.5
								c0-0.2,0-0.3,0-0.5c0-0.2,0-0.4,0-0.6c0-0.2,0.1-0.4,0.1-0.6c0.1-0.2,0.1-0.4,0.2-0.6c0.1-0.2,0.2-0.4,0.3-0.6
								c0.1-0.2,0.2-0.3,0.4-0.5c0.1-0.1,0.3-0.3,0.4-0.4c0.3-0.2,0.6-0.3,0.8-0.3C74.7,120.6,74.8,120.6,74.8,120.6z"/>
						</g>
					</g>
				</g>
			</g>
		</g>
		<g>
			<polygon class="st0" points="93.9,105.1 69.8,75.7 102.3,88.1 			"/>
			<g>
				<g>
					<g>
						<g>
							<path class="st1" d="M95.6,85.8c0,0-0.5,0.8-1.4,1.9c-0.2,0.3-0.5,0.5-0.7,0.8c-0.2,0.3-0.5,0.6-0.8,0.9
								c-0.3,0.3-0.5,0.7-0.8,1c-0.3,0.3-0.5,0.7-0.7,1.1c-0.2,0.4-0.4,0.7-0.6,1.1c-0.2,0.4-0.4,0.8-0.5,1.1
								c-0.2,0.4-0.3,0.8-0.5,1.1c-0.1,0.4-0.3,0.7-0.4,1c-0.3,0.6-0.5,1.2-0.7,1.5c-0.2,0.4-0.3,0.6-0.3,0.6s0-0.2,0-0.6
								c0-0.4,0.1-1,0.1-1.7c0-0.3,0.1-0.7,0.2-1.1c0.1-0.4,0.2-0.8,0.3-1.2c0.1-0.4,0.3-0.9,0.5-1.3c0.2-0.4,0.4-0.9,0.7-1.3
								c0.3-0.4,0.6-0.8,0.9-1.2c0.3-0.4,0.6-0.7,1-1c0.3-0.3,0.7-0.6,1-0.8c0.3-0.3,0.6-0.5,0.9-0.7C94.8,86.3,95.6,85.8,95.6,85.8
								z"/>
						</g>
					</g>
				</g>
			</g>
			<g>
				<g>
					<g>
						<g>
							<path class="st1" d="M86.7,82.4c0,0-0.1,0.1-0.3,0.2c-0.2,0.1-0.4,0.3-0.7,0.6c-0.1,0.1-0.3,0.3-0.4,0.4
								c-0.1,0.2-0.3,0.3-0.4,0.5c-0.2,0.2-0.3,0.4-0.5,0.6c-0.2,0.2-0.3,0.4-0.5,0.6c-0.2,0.2-0.3,0.4-0.5,0.6
								c-0.1,0.2-0.3,0.4-0.4,0.6c-0.1,0.2-0.3,0.4-0.4,0.6c-0.1,0.2-0.3,0.3-0.4,0.5c-0.2,0.3-0.4,0.6-0.6,0.8
								c-0.2,0.2-0.2,0.3-0.2,0.3s0-0.1,0-0.4c0-0.3,0-0.6,0.1-1c0-0.2,0.1-0.4,0.2-0.7c0.1-0.2,0.2-0.5,0.3-0.7
								c0.1-0.2,0.2-0.5,0.4-0.7c0.2-0.2,0.3-0.5,0.5-0.7c0.2-0.2,0.4-0.4,0.6-0.6c0.2-0.2,0.4-0.4,0.6-0.5c0.2-0.2,0.5-0.3,0.7-0.4
								c0.2-0.1,0.4-0.2,0.7-0.3c0.4-0.1,0.8-0.2,1.1-0.1C86.6,82.4,86.7,82.4,86.7,82.4z"/>
						</g>
					</g>
				</g>
			</g>
			<g>
				<g>
					<g>
						<g>
							<path class="st1" d="M77.5,79c0,0-0.2,0.3-0.3,0.7c0,0.1-0.1,0.2-0.1,0.3c-0.1,0.1-0.1,0.2-0.2,0.3c-0.1,0.1-0.1,0.2-0.2,0.3
								c-0.1,0.1-0.1,0.2-0.2,0.3l-0.2,0.3c-0.1,0.1-0.2,0.2-0.2,0.3c-0.1,0.1-0.2,0.2-0.3,0.2c-0.1,0.1-0.2,0.1-0.2,0.2
								c-0.2,0.1-0.3,0.2-0.4,0.3c-0.1,0.1-0.2,0.1-0.2,0.1s0-0.1-0.1-0.2c0-0.1-0.1-0.4-0.1-0.6c0-0.1,0-0.3,0.1-0.4
								c0-0.1,0.1-0.3,0.1-0.4c0.1-0.1,0.1-0.3,0.2-0.4l0.3-0.4c0.1-0.1,0.2-0.2,0.3-0.3c0.1-0.1,0.2-0.2,0.3-0.3
								c0.1-0.1,0.2-0.1,0.4-0.2c0.1-0.1,0.2-0.1,0.4-0.1C77.2,78.9,77.5,79,77.5,79z"/>
						</g>
					</g>
				</g>
			</g>
		</g>
		<g>
			<polygon class="st0" points="210.3,97.5 244.7,84.4 215.1,113.2 			"/>
			<g>
				<g>
					<g>
						<g>
							<path class="st1" d="M218.1,95.3c0,0,0.1,0,0.4,0.1c0.3,0.1,0.6,0.2,1,0.4c0.2,0.1,0.4,0.3,0.6,0.5c0.2,0.2,0.4,0.4,0.6,0.6
								c0.2,0.2,0.4,0.5,0.5,0.7c0.2,0.3,0.3,0.5,0.4,0.8c0.1,0.3,0.2,0.6,0.3,0.8c0.1,0.3,0.2,0.6,0.3,0.8c0.1,0.3,0.1,0.5,0.2,0.8
								c0,0.3,0.1,0.5,0.1,0.7c0,0.4,0,0.8,0,1.1c0,0.3,0,0.4,0,0.4s-0.1-0.1-0.2-0.3c-0.1-0.2-0.3-0.5-0.5-0.9
								c-0.1-0.2-0.2-0.4-0.3-0.6c-0.1-0.2-0.2-0.4-0.3-0.7c-0.1-0.2-0.2-0.5-0.3-0.7c-0.1-0.3-0.2-0.5-0.3-0.7
								c-0.1-0.2-0.2-0.5-0.4-0.7c-0.1-0.2-0.2-0.5-0.4-0.7c-0.1-0.2-0.2-0.4-0.4-0.6c-0.1-0.2-0.2-0.4-0.4-0.5
								c-0.2-0.3-0.5-0.6-0.6-0.8C218.2,95.4,218.1,95.3,218.1,95.3z"/>
						</g>
					</g>
				</g>
			</g>
			<g>
				<g>
					<g>
						<g>
							<path class="st1" d="M226.5,92c0,0,0.1,0,0.3,0c0.2,0,0.5,0,0.8,0.2c0.1,0.1,0.3,0.2,0.5,0.3c0.1,0.1,0.3,0.2,0.5,0.4
								c0.1,0.1,0.3,0.3,0.4,0.5c0.1,0.2,0.2,0.4,0.3,0.5c0.1,0.2,0.2,0.4,0.3,0.6c0.1,0.2,0.1,0.4,0.2,0.6c0.1,0.2,0.1,0.4,0.1,0.6
								c0,0.2,0,0.4,0,0.5c0,0.3-0.1,0.6-0.1,0.8c-0.1,0.2-0.1,0.3-0.1,0.3s-0.1-0.1-0.2-0.3c-0.1-0.2-0.2-0.4-0.4-0.6
								c-0.1-0.1-0.2-0.3-0.2-0.4c-0.1-0.1-0.2-0.3-0.3-0.4c-0.1-0.2-0.2-0.3-0.3-0.5c-0.1-0.2-0.2-0.3-0.3-0.5
								c-0.1-0.2-0.2-0.3-0.3-0.5c-0.1-0.2-0.2-0.3-0.2-0.5c-0.1-0.1-0.2-0.3-0.2-0.4c-0.1-0.1-0.2-0.3-0.2-0.4
								C226.8,92.3,226.5,92,226.5,92z"/>
						</g>
					</g>
				</g>
			</g>
			<g>
				<g>
					<g>
						<g>
							<path class="st1" d="M236.2,88.1c0,0,0.3-0.1,0.7,0c0.1,0,0.2,0.1,0.3,0.1c0.1,0,0.2,0.1,0.3,0.2c0.1,0.1,0.2,0.2,0.2,0.2
								c0.1,0.1,0.1,0.2,0.2,0.3c0,0.1,0.1,0.2,0.1,0.3c0,0.1,0,0.2,0.1,0.3c0,0.1,0,0.2,0,0.3c0,0.1,0,0.2-0.1,0.3
								c0,0.2-0.1,0.3-0.2,0.4c-0.1,0.1-0.1,0.2-0.1,0.2s-0.1,0-0.2-0.1c-0.1-0.1-0.2-0.2-0.3-0.3c-0.1-0.1-0.1-0.1-0.2-0.2
								c-0.1-0.1-0.1-0.1-0.2-0.2c-0.1-0.1-0.1-0.1-0.1-0.2l-0.1-0.2c0-0.1-0.1-0.1-0.1-0.2c0-0.1,0-0.1-0.1-0.2
								c0-0.1,0-0.2-0.1-0.2c0-0.1,0-0.2,0-0.2C236.2,88.4,236.2,88.1,236.2,88.1z"/>
						</g>
					</g>
				</g>
			</g>
		</g>
		<g>
			<polygon class="st0" points="216.1,124 239.4,126.2 217.7,141.6 			"/>
			<g>
				<g>
					<g>
						<g>
							<path class="st1" d="M223.8,125.3c0,0,0.5,0.4,0.9,1.3c0.1,0.2,0.2,0.4,0.3,0.7c0.1,0.3,0.2,0.5,0.3,0.8
								c0.1,0.3,0.1,0.6,0.2,0.9c0.1,0.3,0.1,0.6,0.1,0.9c0,0.3,0,0.6,0,0.9c0,0.3,0,0.6-0.1,0.9c0,0.3-0.1,0.6-0.1,0.8
								c-0.1,0.3-0.1,0.5-0.2,0.7c-0.1,0.4-0.3,0.8-0.4,1c-0.1,0.2-0.2,0.4-0.2,0.4s0-0.2-0.1-0.4c0-0.3-0.1-0.6-0.1-1.1
								c0-0.2,0-0.5-0.1-0.7c0-0.3,0-0.5-0.1-0.8c0-0.3,0-0.5,0-0.8c0-0.3,0-0.6,0-0.8c0-0.3,0-0.6-0.1-0.8c0-0.3,0-0.6-0.1-0.8
								c0-0.3,0-0.5-0.1-0.8c0-0.2,0-0.5-0.1-0.7C223.9,125.9,223.8,125.3,223.8,125.3z"/>
						</g>
					</g>
				</g>
			</g>
			<g>
				<g>
					<g>
						<g>
							<path class="st1" d="M229.7,126c0,0,0.4-0.1,0.9,0.2c0.1,0.1,0.2,0.2,0.3,0.3c0.1,0.1,0.2,0.2,0.3,0.4
								c0.1,0.1,0.1,0.3,0.2,0.4c0.1,0.2,0.1,0.3,0.1,0.5c0,0.2,0.1,0.3,0.1,0.5c0,0.2,0,0.3,0,0.5c0,0.1,0,0.3-0.1,0.4
								c0,0.1-0.1,0.3-0.1,0.4c-0.1,0.2-0.2,0.4-0.3,0.6c-0.1,0.1-0.2,0.2-0.2,0.2s0-0.1-0.1-0.2c-0.1-0.1-0.2-0.3-0.3-0.5
								c-0.1-0.1-0.1-0.2-0.1-0.3c-0.1-0.1-0.1-0.2-0.1-0.4c0-0.1-0.1-0.3-0.1-0.4c0-0.1-0.1-0.3-0.1-0.4l-0.1-0.4
								c0-0.1,0-0.3-0.1-0.4c0-0.1,0-0.2,0-0.3c0-0.1,0-0.2,0-0.3c0-0.2-0.1-0.4-0.1-0.5C229.8,126,229.7,126,229.7,126z"/>
						</g>
					</g>
				</g>
			</g>
		</g>
		<g>
			<polygon class="st0" points="114.9,79.9 119.3,41.6 133.2,74.3 			"/>
			<g>
				<g>
					<g>
						<g>
							<path class="st1" d="M115.7,71.5c0,0,0.1-0.2,0.4-0.5c0.3-0.3,0.7-0.7,1.2-1.1c0.3-0.2,0.6-0.4,0.9-0.6
								c0.3-0.2,0.7-0.4,1.1-0.6c0.4-0.2,0.8-0.3,1.2-0.5c0.4-0.2,0.9-0.3,1.3-0.4c0.4-0.1,0.9-0.2,1.3-0.3c0.4-0.1,0.9-0.1,1.3-0.2
								c0.4,0,0.8-0.1,1.2-0.1c0.4,0,0.8,0,1.1,0c0.7,0,1.2,0.1,1.6,0.2c0.4,0.1,0.6,0.1,0.6,0.1s-0.2,0.1-0.6,0.2
								c-0.4,0.1-0.9,0.2-1.6,0.3c-0.3,0.1-0.7,0.1-1,0.2c-0.4,0.1-0.8,0.2-1.2,0.2c-0.4,0.1-0.8,0.2-1.2,0.3
								c-0.4,0.1-0.8,0.2-1.3,0.3c-0.4,0.1-0.8,0.2-1.2,0.3c-0.4,0.1-0.8,0.2-1.2,0.3c-0.4,0.1-0.8,0.2-1.1,0.4
								c-0.3,0.1-0.7,0.2-1,0.4c-0.6,0.2-1.1,0.5-1.4,0.6C115.9,71.4,115.7,71.5,115.7,71.5z"/>
						</g>
					</g>
				</g>
			</g>
			<g>
				<g>
					<g>
						<g>
							<path class="st1" d="M117.1,62.6c0,0,0.3-0.5,0.9-1.1c0.2-0.2,0.3-0.3,0.5-0.5c0.2-0.2,0.4-0.3,0.7-0.5
								c0.2-0.1,0.5-0.3,0.8-0.4c0.3-0.1,0.5-0.2,0.8-0.3c0.3-0.1,0.6-0.2,0.9-0.2c0.3-0.1,0.6-0.1,0.9-0.1c0.3,0,0.6,0,0.8,0
								c0.3,0,0.5,0,0.7,0.1c0.4,0.1,0.8,0.2,1,0.3c0.2,0.1,0.4,0.2,0.4,0.2s-0.1,0-0.4,0.1c-0.2,0.1-0.6,0.1-1,0.2
								c-0.2,0.1-0.4,0.1-0.6,0.2c-0.2,0.1-0.5,0.1-0.7,0.2c-0.2,0.1-0.5,0.2-0.7,0.2c-0.3,0.1-0.5,0.2-0.8,0.2
								c-0.3,0.1-0.5,0.2-0.8,0.3c-0.3,0.1-0.5,0.2-0.7,0.3c-0.2,0.1-0.5,0.2-0.7,0.3c-0.2,0.1-0.4,0.2-0.6,0.2
								C117.7,62.5,117.1,62.6,117.1,62.6z"/>
						</g>
					</g>
				</g>
			</g>
			<g>
				<g>
					<g>
						<g>
							<path class="st1" d="M118,53.7c0,0,0-0.1,0.1-0.3c0.1-0.2,0.2-0.4,0.4-0.6c0.1-0.1,0.2-0.2,0.3-0.3c0.1-0.1,0.3-0.2,0.4-0.3
								c0.2-0.1,0.3-0.2,0.5-0.2c0.2-0.1,0.4-0.1,0.5-0.2c0.2,0,0.4-0.1,0.5-0.1c0.2,0,0.4,0,0.5,0c0.2,0,0.3,0,0.5,0
								c0.2,0,0.3,0.1,0.4,0.1c0.3,0.1,0.5,0.2,0.6,0.3c0.1,0.1,0.2,0.2,0.2,0.2s-0.1,0.1-0.2,0.1c-0.1,0.1-0.4,0.2-0.6,0.3
								c-0.1,0.1-0.3,0.1-0.4,0.2c-0.1,0.1-0.3,0.1-0.4,0.1c-0.1,0-0.3,0.1-0.5,0.1l-0.5,0.1c-0.2,0-0.3,0.1-0.5,0.1
								c-0.2,0-0.3,0-0.4,0.1c-0.1,0-0.3,0-0.4,0.1c-0.1,0-0.3,0-0.4,0.1C118.4,53.6,118,53.7,118,53.7z"/>
						</g>
					</g>
				</g>
			</g>
		</g>
		<g>
			<polygon class="st0" points="150.3,74.3 166.8,37 174.4,75.7 			"/>
			<g>
				<g>
					<g>
						<g>
							<path class="st1" d="M155.3,63.8c0,0,0.2-0.2,0.6-0.4c0.4-0.3,0.9-0.6,1.6-0.9c0.4-0.2,0.7-0.4,1.2-0.5
								c0.4-0.1,0.9-0.3,1.4-0.4c0.5-0.1,1-0.2,1.5-0.2c0.5,0,1.1,0,1.6,0c0.5,0,1,0.1,1.5,0.1c0.5,0,1,0.1,1.5,0.2
								c0.5,0.1,0.9,0.2,1.4,0.3c0.4,0.1,0.8,0.3,1.2,0.4c0.7,0.3,1.3,0.6,1.7,0.9c0.4,0.3,0.5,0.5,0.5,0.5s-0.2-0.1-0.7-0.2
								c-0.4-0.1-1-0.3-1.8-0.4c-0.4,0-0.8-0.1-1.2-0.1c-0.4,0-0.9-0.1-1.3-0.1c-0.5,0-1-0.1-1.4-0.1c-0.5,0-1,0-1.5-0.1
								c-0.5,0-1-0.1-1.4,0c-0.5,0-0.9,0-1.4,0.1c-0.5,0.1-0.9,0.1-1.3,0.2c-0.4,0.1-0.8,0.2-1.2,0.2
								C156.3,63.6,155.3,63.8,155.3,63.8z"/>
						</g>
					</g>
				</g>
			</g>
			<g>
				<g>
					<g>
						<g>
							<path class="st1" d="M159.3,54.8c0,0,0.1-0.1,0.3-0.3c0.2-0.2,0.6-0.4,1-0.7c0.2-0.1,0.5-0.2,0.7-0.3
								c0.3-0.1,0.6-0.2,0.9-0.2c0.3-0.1,0.6-0.1,0.9-0.2c0.3,0,0.7,0,1-0.1c0.3,0,0.7,0,1,0.1c0.3,0,0.6,0.1,0.9,0.2
								c0.3,0.1,0.6,0.2,0.9,0.3c0.3,0.1,0.5,0.2,0.7,0.3c0.4,0.2,0.8,0.5,1,0.7c0.2,0.2,0.3,0.4,0.3,0.4s-0.2,0-0.4-0.1
								c-0.3-0.1-0.7-0.1-1.1-0.2c-0.2,0-0.5,0-0.7-0.1c-0.3,0-0.5,0-0.8,0c-0.3,0-0.6,0-0.9,0c-0.3,0-0.6,0-0.9,0
								c-0.3,0-0.6,0-0.9,0c-0.3,0-0.6,0-0.9,0c-0.3,0-0.6,0-0.8,0c-0.3,0-0.5,0-0.7,0.1C160,54.6,159.3,54.8,159.3,54.8z"/>
						</g>
					</g>
				</g>
			</g>
			<g>
				<g>
					<g>
						<g>
							<path class="st1" d="M162.9,47c0,0,0-0.1,0.1-0.3c0.1-0.2,0.2-0.4,0.4-0.6c0.1-0.1,0.2-0.2,0.4-0.3c0.1-0.1,0.3-0.2,0.5-0.2
								c0.2-0.1,0.3-0.1,0.5-0.1c0.2,0,0.4,0,0.5,0c0.2,0,0.4,0,0.5,0.1c0.2,0,0.3,0.1,0.5,0.1c0.2,0.1,0.3,0.1,0.4,0.2
								c0.1,0.1,0.3,0.2,0.4,0.3c0.2,0.2,0.3,0.4,0.4,0.6c0,0.2,0.1,0.3,0.1,0.3s-0.1,0-0.3,0c-0.2,0-0.3,0-0.6,0
								c-0.1,0-0.2,0-0.3,0c-0.1,0-0.2,0-0.4,0c-0.1,0-0.3,0-0.4,0c-0.1,0-0.3,0-0.4,0c-0.1,0-0.3,0-0.4,0c-0.1,0-0.3,0-0.4,0
								c-0.1,0-0.3,0-0.4,0c-0.1,0-0.2,0-0.3,0C163.2,46.9,162.9,47,162.9,47z"/>
						</g>
					</g>
				</g>
			</g>
		</g>
		<g>
			<polygon class="st0" points="190.4,77.6 213,50.2 204,88.1 			"/>
			<g>
				<g>
					<g>
						<g>
							<path class="st1" d="M195.5,72.2c0,0,0.7-0.3,1.7-0.3c0.3,0,0.6,0,0.9,0c0.3,0,0.6,0.1,1,0.1c0.3,0.1,0.7,0.2,1,0.3
								c0.3,0.1,0.7,0.3,1,0.5c0.3,0.2,0.6,0.4,0.9,0.6c0.3,0.2,0.5,0.4,0.8,0.6c0.2,0.2,0.5,0.4,0.7,0.6c0.2,0.2,0.4,0.4,0.6,0.6
								c0.3,0.4,0.6,0.7,0.8,1c0.2,0.2,0.3,0.4,0.3,0.4s-0.2-0.1-0.5-0.1c-0.3-0.1-0.7-0.3-1.2-0.5c-0.2-0.1-0.5-0.3-0.7-0.4
								c-0.3-0.1-0.5-0.3-0.8-0.5c-0.3-0.2-0.5-0.3-0.8-0.5c-0.3-0.2-0.5-0.3-0.8-0.5c-0.3-0.2-0.5-0.3-0.8-0.4
								c-0.3-0.1-0.6-0.3-0.8-0.4c-0.3-0.1-0.5-0.2-0.8-0.3c-0.3-0.1-0.5-0.2-0.8-0.2C196.2,72.4,195.5,72.2,195.5,72.2z"/>
						</g>
					</g>
				</g>
			</g>
			<g>
				<g>
					<g>
						<g>
							<path class="st1" d="M200.4,65.6c0,0,0.5-0.2,1.3-0.3c0.2,0,0.4,0,0.7,0c0.2,0,0.5,0,0.7,0.1c0.3,0.1,0.5,0.1,0.8,0.2
								c0.3,0.1,0.5,0.2,0.8,0.3c0.2,0.1,0.5,0.2,0.7,0.4c0.2,0.1,0.4,0.3,0.6,0.5c0.2,0.2,0.4,0.3,0.5,0.5c0.2,0.2,0.3,0.4,0.4,0.5
								c0.2,0.3,0.4,0.7,0.4,0.9c0.1,0.2,0.1,0.4,0.1,0.4s-0.1-0.1-0.3-0.2c-0.2-0.1-0.5-0.3-0.8-0.5c-0.2-0.1-0.3-0.2-0.5-0.3
								c-0.2-0.1-0.4-0.2-0.6-0.3c-0.2-0.1-0.4-0.2-0.6-0.3c-0.2-0.1-0.4-0.2-0.6-0.3c-0.2-0.1-0.4-0.2-0.6-0.3
								c-0.2-0.1-0.4-0.2-0.6-0.3c-0.2-0.1-0.4-0.2-0.6-0.2c-0.2-0.1-0.4-0.1-0.6-0.2C200.9,65.9,200.4,65.6,200.4,65.6z"/>
						</g>
					</g>
				</g>
			</g>
			<g>
				<g>
					<g>
						<g>
							<path class="st1" d="M206,58.7c0,0,0.3-0.2,0.7-0.3c0.1,0,0.2,0,0.3-0.1c0.1,0,0.3,0,0.4,0c0.1,0,0.3,0,0.4,0.1
								c0.1,0,0.3,0.1,0.4,0.1c0.1,0.1,0.3,0.1,0.4,0.2c0.1,0.1,0.2,0.2,0.3,0.3c0.1,0.1,0.2,0.2,0.3,0.3c0.1,0.1,0.1,0.2,0.2,0.3
								c0.1,0.2,0.1,0.4,0.1,0.6c0,0.1,0,0.2,0,0.2s-0.1,0-0.2,0c-0.1,0-0.3-0.1-0.5-0.1c-0.1,0-0.2,0-0.3-0.1c-0.1,0-0.2,0-0.3-0.1
								c-0.1,0-0.2-0.1-0.3-0.1c-0.1,0-0.2-0.1-0.3-0.1c-0.1,0-0.2-0.1-0.3-0.1c-0.1-0.1-0.2-0.1-0.3-0.2c-0.1,0-0.2-0.1-0.3-0.2
								c-0.1-0.1-0.2-0.1-0.3-0.2C206.2,59,206,58.7,206,58.7z"/>
						</g>
					</g>
				</g>
			</g>
		</g>
	</g>
	<g>
		<path class="st2" d="M86,147.2c0,0-35.1,10.6-36.3,30.7c-1.2,20.1,31.5,22.8,31.5,22.8s-9.6,4.4-8.3,8.3
			c1.4,3.9,11.2-1.4,11.2-1.4s-3.7,7.3-1,9.2s9.4-6.5,9.4-6.5s1,7.3,3.2,6.8s7.1-11.7,0.8-18.6c-6.3-6.9-24.8-7.8-30.5-12.7
			c-5.7-4.9-8.4-17.7,23.6-26.2L86,147.2z"/>
		<path class="st2" d="M216.1,167.8c0,0,22.8,9.2,23.3,16.1c0.5,6.9-25.7,14-30.4,16.9s-7.3,11.3,0,16.3s3.9-7,3.9-7s5.4,8.3,9,7
			c3.6-1.3-1.3-10.7-1.3-10.7s9.7,5.6,11.8,2.6c2.2-3-2.2-5.4-2.2-5.4s18.5-9.1,19.9-17.7c1.4-8.6-20.9-26.1-32.5-28.6
			C206.1,154.7,212.4,166.2,216.1,167.8z"/>
		<path class="st3" d="M125.3,215.4c0,0-0.3,23.4-0.9,28.3c0,0-17.8-4.9-22.9,1.2c-5.1,6.1-2.6,13.2,0,14.2c2.6,1,25.2,2.8,30.3,0
			c0.7-1,1.9-39.4,1.4-42.3C131.1,217,125.3,215.4,125.3,215.4z"/>
		<path class="st3" d="M177.7,213.2c0,0-0.5,28.4-0.7,30.4c0,0,16.7-4.8,21.9,1.8s3.2,13.5,1.6,14.7c-1.2,0.9-26.8,2.3-32.5-1.4
			c-1.4-2.6,3.1-46.2,3.1-46.2L177.7,213.2z"/>
	</g>
	<g>
		<path class="st2" d="M101.2,85.4c10.4-10.1,30.9-15.7,65-14.7S216.6,92,219,122.4c2.4,30.4,5.2,81.7-14.7,89.8
			c-19.9,8-91.8,14.6-110.9-7.7S85.2,100.9,101.2,85.4z"/>
		<path class="st4" d="M105.8,101.1c9.5-9.2,28.2-14.3,59.2-13.4s45.8,19.3,48,47c2.1,27.7,7.4,67.6-10.7,74.9s-83.5,13.3-100.9-7
			S91.2,115.2,105.8,101.1z"/>
		<g>
			<g>
				<g>
					<g>
						<path class="st5" d="M205.1,211.8c0,0,0.2-0.1,0.7-0.3c0.4-0.2,0.9-0.6,1.5-1.1c0.3-0.2,0.6-0.5,0.9-0.8c0.3-0.3,0.6-0.6,1-1
							c0.3-0.3,0.6-0.7,1-1.1c0.3-0.4,0.6-0.8,1-1.2c0.3-0.4,0.6-0.8,0.9-1.2c0.3-0.4,0.6-0.8,0.8-1.2c0.3-0.4,0.5-0.8,0.8-1.2
							c0.2-0.4,0.5-0.7,0.7-1.1c0.4-0.7,0.7-1.2,1-1.7c0.2-0.4,0.3-0.7,0.3-0.7s0,0.3-0.1,0.7c-0.1,0.5-0.2,1.1-0.5,1.9
							c-0.1,0.4-0.3,0.8-0.5,1.2c-0.2,0.4-0.4,0.9-0.6,1.3c-0.2,0.5-0.5,0.9-0.8,1.4c-0.3,0.5-0.6,0.9-0.9,1.3
							c-0.3,0.4-0.7,0.9-1,1.2c-0.4,0.4-0.7,0.8-1.1,1.1c-0.4,0.4-0.8,0.6-1.2,0.9c-0.4,0.3-0.8,0.5-1.1,0.7
							c-0.7,0.4-1.4,0.6-1.9,0.6C205.4,211.8,205.1,211.8,205.1,211.8z"/>
					</g>
				</g>
			</g>
		</g>
		<g>
			<g>
				<g>
					<g>
						<path class="st5" d="M87.6,194c0,0,0.1,0.3,0.3,0.8c0.2,0.5,0.5,1.2,0.8,2c0.2,0.4,0.4,0.8,0.7,1.3c0.2,0.4,0.5,0.9,0.8,1.4
							c0.3,0.5,0.6,1,0.9,1.4c0.3,0.5,0.7,1,1,1.5c0.4,0.5,0.7,1,1.1,1.4c0.4,0.5,0.7,0.9,1.1,1.3c0.4,0.4,0.8,0.8,1.1,1.2
							c0.4,0.3,0.7,0.7,1,1c0.7,0.6,1.3,1.1,1.7,1.4c0.4,0.3,0.7,0.5,0.7,0.5s-0.3-0.1-0.8-0.2c-0.5-0.2-1.2-0.5-2-1
							c-0.4-0.2-0.8-0.5-1.3-0.9c-0.4-0.3-0.9-0.7-1.3-1.1c-0.4-0.4-0.9-0.8-1.3-1.3c-0.4-0.5-0.8-1-1.2-1.5c-0.4-0.5-0.7-1-1-1.6
							c-0.3-0.5-0.6-1.1-0.9-1.6c-0.3-0.5-0.5-1.1-0.7-1.6c-0.2-0.5-0.3-1-0.4-1.5c-0.2-0.9-0.3-1.7-0.4-2.2
							C87.6,194.3,87.6,194,87.6,194z"/>
					</g>
				</g>
			</g>
		</g>
	</g>
	<g>
		<g>
			<circle class="st6" cx="155.2" cy="170" r="28.5"/>
			<g>
				<defs>
					<path id="SVGID_1_" d="M180.7,159.8c-0.1,7-6.6,12.7-12.6,12.6c-6.9-0.2-12.6-5.6-12.6-12.6c0-6.9,5.6-12.6,12.6-12.6
						C175.1,147.2,180.8,152.8,180.7,159.8z"/>
				</defs>
				<use xlink:href="#SVGID_1_"  style="overflow:visible;fill:#1D1D1B;"/>
				<clipPath id="SVGID_2_">
					<use xlink:href="#SVGID_1_"  style="overflow:visible;"/>
				</clipPath>
				<circle class="st7" cx="172.6" cy="155.2" r="8.1"/>
			</g>
		</g>
		<g>
			<ellipse class="st8" cx="114" cy="194.3" rx="10.9" ry="8.4"/>
			<ellipse class="st8" cx="195.9" cy="194.3" rx="10.9" ry="8.4"/>
		</g>
		<g>
			<g>
				<g>
					<g>
						<g>
							<path class="st9" d="M141,205.2c0,0,1.8,0.6,4.4,1.2c0.7,0.1,1.4,0.3,2.1,0.4c0.7,0.2,1.5,0.2,2.3,0.4
								c0.8,0.1,1.6,0.2,2.5,0.2c0.4,0,0.8,0,1.3,0l0.6,0l0.6,0l1.3,0c0.4,0,0.8-0.1,1.2-0.2c0.4-0.1,0.8-0.1,1.2-0.2
								c0.4-0.1,0.8-0.2,1.2-0.3c0.8-0.1,1.5-0.4,2.2-0.6c0.4-0.1,0.7-0.2,1-0.3c0.3-0.1,0.6-0.3,0.9-0.4c0.6-0.3,1.2-0.5,1.7-0.7
								c0.5-0.3,0.9-0.5,1.3-0.7c0.7-0.4,1.2-0.6,1.2-0.6s-0.3,0.4-0.8,1c-0.3,0.3-0.6,0.7-1,1.1c-0.4,0.4-0.9,0.8-1.5,1.3
								c-0.3,0.2-0.6,0.5-0.9,0.7c-0.3,0.2-0.7,0.4-1.1,0.6c-0.7,0.4-1.5,0.8-2.4,1.1c-0.4,0.1-0.9,0.3-1.3,0.4
								c-0.5,0.1-0.9,0.2-1.4,0.3c-0.5,0.1-0.9,0.2-1.4,0.2l-1.5,0.1l-0.7,0l-0.7-0.1c-0.5,0-1-0.1-1.4-0.1
								c-0.9-0.2-1.9-0.3-2.7-0.6c-0.9-0.2-1.7-0.5-2.4-0.8c-0.8-0.3-1.4-0.6-2.1-1c-1.2-0.7-2.2-1.3-2.9-1.9
								C141.3,205.6,141,205.2,141,205.2z"/>
						</g>
					</g>
				</g>
			</g>
			<g>
				<g>
					<g>
						<g>
							<path class="st9" d="M139.3,206.4c0,0,0-0.6,0.3-1.2c0.1-0.1,0.1-0.3,0.2-0.4c0.1-0.1,0.2-0.3,0.3-0.4
								c0.1-0.1,0.2-0.2,0.3-0.4c0.1-0.1,0.2-0.2,0.3-0.3c0.1-0.1,0.2-0.2,0.3-0.2c0.1-0.1,0.2-0.1,0.3-0.2c0.1-0.1,0.2-0.1,0.3-0.2
								c0.1-0.1,0.2-0.1,0.4-0.2c0.3-0.1,0.5-0.3,0.7-0.3c0.2-0.1,0.3-0.2,0.3-0.2s0.1,0.1,0.2,0.3c0.1,0.2,0.3,0.5,0.3,0.9
								c0,0.2,0,0.4,0,0.6c0,0.2-0.1,0.4-0.2,0.6c-0.1,0.2-0.2,0.4-0.3,0.6c-0.1,0.2-0.3,0.3-0.5,0.5c-0.2,0.1-0.4,0.3-0.5,0.4
								c-0.2,0.1-0.4,0.1-0.5,0.2c-0.2,0.1-0.4,0.1-0.5,0.1c-0.2,0-0.3,0-0.5,0C139.8,206.6,139.3,206.4,139.3,206.4z"/>
						</g>
					</g>
				</g>
			</g>
			<g>
				<g>
					<g>
						<g>
							<path class="st9" d="M167.2,202.5c0,0,0.5-0.2,1-0.2c0.1,0,0.3,0,0.4,0c0.1,0,0.3,0,0.4,0.1c0.1,0,0.2,0.1,0.4,0.1l0.3,0.2
								l0.3,0.3c0.1,0.1,0.1,0.2,0.2,0.3c0.1,0.1,0.1,0.2,0.1,0.4c0,0.1,0.1,0.3,0.1,0.4c0,0.3,0,0.5,0,0.7c0,0.2,0,0.3,0,0.3
								s-0.1,0-0.3,0.1c-0.2,0.1-0.4,0.1-0.7,0.2c-0.1,0-0.3,0-0.4,0c-0.1,0-0.3,0-0.4-0.1c-0.1,0-0.3-0.1-0.4-0.1l-0.3-0.2
								l-0.3-0.3c-0.1-0.1-0.1-0.2-0.2-0.3c-0.1-0.1-0.1-0.3-0.1-0.4c0-0.1-0.1-0.3-0.1-0.4C167.1,203,167.2,202.5,167.2,202.5z"/>
						</g>
					</g>
				</g>
			</g>
		</g>
	</g>
	<g>
		<circle class="st10" cx="114" cy="99.6" r="12.6"/>
		<circle class="st10" cx="135.5" cy="84.4" r="8.7"/>
		<circle class="st10" cx="144.2" cy="103.4" r="3.8"/>
		<circle class="st10" cx="111.1" cy="131.7" r="4.8"/>
		<circle class="st10" cx="102.3" cy="121.9" r="5.8"/>
		<circle class="st10" cx="96.5" cy="147.2" r="7.2"/>
		<circle class="st10" cx="170.9" cy="108.3" r="9.2"/>
		<circle class="st10" cx="168.1" cy="84.4" r="6.6"/>
		<circle class="st10" cx="193.3" cy="98" r="6.2"/>
		<circle class="st10" cx="197.4" cy="127.9" r="5.2"/>
		<circle class="st10" cx="207.2" cy="147.2" r="4.3"/>
		<circle class="st10" cx="204.5" cy="111.2" r="7.1"/>
	</g>
</g>
</svg>
