<?xml version="1.0" encoding="utf-8"?>
<!-- Generator: Adobe Illustrator 21.0.2, SVG Export Plug-In . SVG Version: 6.00 Build 0)  -->
<svg version="1.1" id="Layer_1" xmlns="http://www.w3.org/2000/svg" xmlns:xlink="http://www.w3.org/1999/xlink" x="0px" y="0px"
	 viewBox="0 0 300 300" style="enable-background:new 0 0 300 300;" xml:space="preserve">
<style type="text/css">
	.st0{fill:#5B8C42;}
	.st1{fill:#BED897;}
	.st2{opacity:0.2;fill:#5B8C42;}
	.st3{fill:#F8E7A1;}
	.st4{fill:#FFFFFF;}
	.st5{clip-path:url(#XMLID_4_);}
	.st6{fill:#7A4EA8;}
	.st7{fill:#010101;}
	.st8{fill:#C2282D;}
	.st9{clip-path:url(#XMLID_5_);}
	.st10{fill:#729C5C;}
	.st11{clip-path:url(#XMLID_6_);}
	.st12{fill:#BBA5D3;}
</style>
<g id="XMLID_1895_">
	<g id="XMLID_1934_">
		<path id="XMLID_1935_" class="st0" d="M159.2,84c0,0-4.3-21.7-11.3-32.3s-17.3-15.7-17.3-15.7s2,18.3,9.7,34.6
			C147.9,87,152.5,89,152.5,89L159.2,84z"/>
		<path id="XMLID_1940_" class="st1" d="M133.7,52.2c1.5,5.7,3.6,12.3,6.5,18.5C147.9,87,152.5,89,152.5,89l1.8-1.4
			C150.1,74.1,143.6,61.9,133.7,52.2z"/>
	</g>
	<g id="XMLID_1894_">
		<path id="XMLID_1896_" class="st0" d="M124.5,167.5c0,0-28.2-3-29.5,41s-2.7,50,3,51.2c5.7,1.2,21.2,2.5,32.5,1.7
			c11.2-0.7,15.2-6.2,16.2-14.2s-0.7-56.5-2.5-62.7C142.5,178.3,139.5,169.5,124.5,167.5z"/>
		<path id="XMLID_1890_" class="st2" d="M124.5,167.5c0,0-28.2-3-29.5,41s-2.7,50,3,51.2c5.7,1.2,21.2,2.5,32.5,1.7
			c11.2-0.7,15.2-6.2,16.2-14.2s-0.7-56.5-2.5-62.7C142.5,178.3,139.5,169.5,124.5,167.5z"/>
		<path id="XMLID_1911_" class="st3" d="M101.7,260.2c1.4-2.9-1.7-9-4.3-10.7c-0.7-0.4-1.7-0.8-2.5-0.6c-1.6,0.3-1.2,0.8-1.2,2.5
			c0,2.5-0.1,6,2.1,7.8C96.8,259.9,101.4,260.9,101.7,260.2z"/>
	</g>
	<path id="XMLID_1887_" class="st1" d="M134.2,87.2c0,0-6.3-9.8-16.2-8.8c-9.8,1-14.2,9.2-15,12.3s-1,5-1,5l32.8-4L134.2,87.2z"/>
	<path id="XMLID_1886_" class="st4" d="M133,91c0,0-5.9-9.7-12-11c-4.8-1-10,0.7-13.2,5.5s-2.8,10-2.8,10L133,91z"/>
	<g id="XMLID_1899_">
		<defs>
			<path id="XMLID_1898_" d="M133,91c0,0-5.9-9.7-12-11c-4.8-1-10,0.7-13.2,5.5s-2.8,10-2.8,10L133,91z"/>
		</defs>
		<clipPath id="XMLID_4_">
			<use xlink:href="#XMLID_1898_"  style="overflow:visible;"/>
		</clipPath>
		<g id="XMLID_1889_" class="st5">
			<circle id="XMLID_1892_" class="st6" cx="110.8" cy="86.4" r="6.5"/>
			<circle id="XMLID_1891_" class="st7" cx="110.2" cy="85.4" r="3"/>
		</g>
	</g>
	<path id="XMLID_1884_" class="st1" d="M245.5,120.7c-16.3-26-37-35.6-46-38.3c-5.6-1.7-11.8-2.2-16.4-2.7
		c1.3-4.3,0.7-11.7-2.5-14.6c-0.3,4.9-1.2,8.8-2.7,13.4c0.1-5.7-0.6-9.8-3.8-14.7c-1.8,4.2-3.1,8.4-3.4,12.9
		c-2.9-4-4.1-8.8-8.8-11.4c0.3,3.6,1,8.2,2.6,12c-5.4,2.3-23.2,9.1-46.9,11.6c-28.6,3-43,2.3-43,2.3s-17-13.3-32.6-6
		c-15.7,7.3-8,17.3-3.3,18.3c4.7,1,11.3-2.3,11.3-2.3s4.3,20,4.7,41s2.3,53.3,24.6,72.6c22.3,19.3,37.6,22.3,77.3,22.3
		s86.6-1.3,94.6-26.3S261.8,146.6,245.5,120.7z"/>
	<g id="XMLID_1881_">
		<g>
			<path class="st0" d="M158.8,111.6c-6.3,7.2-6.3,21.2-2.9,29.7c3,7.6,10.6,14.9,19.2,14.8c0.8,0,1-1.2,0.2-1.4
				c-8.5-2.2-15.1-7-18-15.5c-2.8-8.1-2.2-19.5,2.7-26.8C160.2,111.8,159.3,111,158.8,111.6L158.8,111.6z"/>
		</g>
	</g>
	<path id="XMLID_1882_" class="st4" d="M182,118.7c-2.7-4.5-10-13.3-19.2-8.7c-9.2,4.7-7.7,24,5,30c13.9,6.5,18.3-4.2,17.9-9.3
		C185.5,126.3,184.8,123.3,182,118.7z"/>
	<circle id="XMLID_1883_" class="st6" cx="166.9" cy="118.4" r="6.5"/>
	<circle id="XMLID_1885_" class="st7" cx="166.3" cy="117.3" r="3"/>
	<g id="XMLID_1888_">
		<path id="XMLID_1905_" class="st3" d="M75.4,91.1c-5-1.2,0.3-12.7,5.7-8.2c3.9,3.3,3.6,9.4,4.5,13.8C82.9,96,78.8,93.5,75.4,91.1z
			"/>
		<path id="XMLID_1906_" class="st3" d="M85.7,97.8c0.7-2.2,2.7-6.9,6.6-7c4.7-0.2,6.9,5.2,7.2,8.8c0.2,2.5-0.3,4.9-0.3,7.3
			c-2,0.2-4.3-2.5-5.9-3.4c-1.4-0.9-3-1.5-4.2-2.7C88.6,100.2,87.3,98.5,85.7,97.8z"/>
		<path id="XMLID_1907_" class="st3" d="M100.6,108c0.4-4.1,6.8-9.6,11.1-6.7c4,2.7,4,6.8,3.6,11.3c-0.1,1.7-0.6,3.1-1,4.7
			c-1.1-0.4-2-1.9-3.1-2.6c-1.4-1-2.8-1.9-4.3-2.7C105,110.9,103.1,109.8,100.6,108z"/>
		<path id="XMLID_1908_" class="st3" d="M115.5,118.5c2.2-3,6.3-7.4,10.5-5.2c3.5,1.8,4.8,6.2,4.1,9.9c-0.3,1.6-1.5,4.3-2.4,5.7
			c-1.2-0.3-2.5-2.3-3.5-3.1c-1.4-1-2.3-2.1-3.5-3.3c-0.8-0.8-1.6-1.7-2.5-2.3C117.6,119.6,116.7,119.3,115.5,118.5z"/>
		<path id="XMLID_1909_" class="st3" d="M129.4,129.6c1.5-4.3,7.8-6.1,11.7-4.6c4.2,1.6,3.4,8.4,2.2,11.8c-0.7,2.1-2,4.1-3.5,5.7
			c-1.2-0.8-1.8-2.4-2.7-3.5c-1.1-1.4-2.3-2.8-3.6-4C132.3,133.8,129.9,131.9,129.4,129.6z"/>
		<g id="XMLID_1880_">
			<g>
				<path class="st8" d="M74.4,91.8c6.6,3.2,12.5,7.7,18.4,12c7.1,5.1,14.3,10.2,21.4,15.4c7.3,5.4,14.6,11.1,20.1,18.5
					c5.5,7.4,7.7,15,8.7,24.1c0.1,0.9,1.2,0.9,1.3,0c2.2-16.9-12.7-31.7-24.8-41c-7.6-5.9-15.6-11.3-23.4-16.9
					C89.6,99.1,82.8,93,74.9,90.5C74.2,90.3,73.7,91.4,74.4,91.8L74.4,91.8z"/>
			</g>
		</g>
	</g>
	<g id="XMLID_1927_">
		<g id="XMLID_1926_">
			<defs>
				<path id="XMLID_1925_" d="M214.7,168.3c0,0-28.2-3-29.5,41s-2.7,50,3,51.2c5.7,1.2,21.2,2.5,32.5,1.7C232,261.5,236,256,237,248
					c1-8-0.7-56.5-2.5-62.7C232.7,179,229.7,170.3,214.7,168.3z"/>
			</defs>
			<use xlink:href="#XMLID_1925_"  style="overflow:visible;fill:#729C5C;"/>
			<clipPath id="XMLID_5_">
				<use xlink:href="#XMLID_1925_"  style="overflow:visible;"/>
			</clipPath>
			<g id="XMLID_1913_" class="st9">
				<path id="XMLID_1924_" class="st3" d="M188.2,261.2c0,0-1.3-11.8,7-12c8.3-0.2,7,13.7,7,13.7L188.2,261.2z"/>
				<path id="XMLID_1923_" class="st3" d="M204.4,263.1l13.7,0.3c0,0,2.2-12.7-7-13C201.9,250.1,204.4,263.1,204.4,263.1z"/>
				<path id="XMLID_1922_" class="st3" d="M220.7,263.4l12.5-4c0,0-0.2-11.2-7.7-9.8C218.1,250.9,220.7,263.4,220.7,263.4z"/>
			</g>
		</g>
	</g>
	<g id="XMLID_1931_">
		<path id="XMLID_1893_" class="st10" d="M157.3,169.8c0,0-28.2-3-29.5,41c-1.2,44-2.7,50,3,51.2c5.7,1.2,21.2,2.5,32.5,1.7
			c11.2-0.7,15.2-6.2,16.2-14.2s-0.7-56.5-2.5-62.7S172.3,171.8,157.3,169.8z"/>
		<g id="XMLID_1930_">
			<defs>
				<path id="XMLID_1929_" d="M157.3,169.8c0,0-28.2-3-29.5,41c-1.2,44-2.7,50,3,51.2c5.7,1.2,21.2,2.5,32.5,1.7
					c11.2-0.7,15.2-6.2,16.2-14.2s-0.7-56.5-2.5-62.7S172.3,171.8,157.3,169.8z"/>
			</defs>
			<clipPath id="XMLID_6_">
				<use xlink:href="#XMLID_1929_"  style="overflow:visible;"/>
			</clipPath>
			<g id="XMLID_1928_" class="st11">
				<path id="XMLID_1914_" class="st3" d="M130.5,262.7c0,0-1.3-11.8,7-12c8.3-0.2,7,13.7,7,13.7L130.5,262.7z"/>
				<path id="XMLID_1920_" class="st3" d="M146.7,264.6l13.7,0.3c0,0,2.2-12.7-7-13C144.2,251.6,146.7,264.6,146.7,264.6z"/>
				<path id="XMLID_1921_" class="st3" d="M163,264.9l12.5-4c0,0-0.2-11.2-7.7-9.8C160.3,252.4,163,264.9,163,264.9z"/>
			</g>
		</g>
	</g>
	<g id="XMLID_1936_">
		<path id="XMLID_1932_" class="st0" d="M201.5,107.7c0,0,6.7-24.6,25.3-34.6s26-4.7,26-4.7s-5.3,18.3-25,30.3
			S201.5,107.7,201.5,107.7z"/>
		<path id="XMLID_1933_" class="st1" d="M205.1,106c0,0,10.3-16.3,20.7-24s15-7.3,15-7.3s-6,13.7-17,21
			C212.8,103,205.1,106,205.1,106z"/>
	</g>
	<path id="XMLID_1897_" class="st12" d="M65.9,133c-2.6,1.6-4.2,8.5-2.7,11.5c1.1,2.1,6,4.7,8.4,3.9c5-1.6,4.8-10.4,2.2-13.6
		C71.4,131.7,69,131,65.9,133z"/>
	<path id="XMLID_1900_" class="st12" d="M85.6,167c-8.1,0.7-13.2,12.3-13.7,18.7c-0.6,8.4,3.2,16,12.6,15.3
		c12.7-0.9,19.6-16.8,13.5-27.7C95.3,168.6,90.7,166.5,85.6,167z"/>
	<path id="XMLID_1901_" class="st12" d="M68.7,160.5c-5.5-3.1-10.4,4.2-5,7.8c2.7,1.8,5.7,0,6.8-2.5
		C71.3,163.9,70.4,161.4,68.7,160.5z"/>
	<path id="XMLID_1902_" class="st12" d="M88.9,150.3c-3.9-2.2-7.3,3-3.6,5.5c1.9,1.3,4,0,4.8-1.8C90.7,152.7,90.1,151,88.9,150.3z"
		/>
	<path id="XMLID_1903_" class="st12" d="M99.2,207.6c-3.6,3.6,0.9,11.4,6,13.4c3.7,1.5,7.2-0.3,8-4.2
		C114.5,210.7,106.3,200.4,99.2,207.6z"/>
	<path id="XMLID_67_" class="st12" d="M229.8,122.1c1-0.3,1.9-1,2.7-2.4c2.7-4.7-1.2-11.3-5.8-10.2
		C218.5,111.6,225.2,123.5,229.8,122.1z"/>
	<path id="XMLID_70_" class="st12" d="M233.1,131.8c-8.3,3.1-9,14.4-2.4,18.1c5.1,2.8,10.7,2.1,14-2.8c2.1-3.2,2.1-6.9,0.6-10.3
		C243.3,132.4,237.9,130.1,233.1,131.8z"/>
	<path id="XMLID_85_" class="st12" d="M242.2,160.2c-1.9,4.6,5.6,7.8,7.5,3c2-5-4-7.5-7.1-3.8L242.2,160.2z"/>
	<path id="XMLID_1904_" class="st12" d="M246.5,175.5c-10.7-1.4-9.1,20.6,0.9,16.4C254.1,189.1,255.6,177.4,246.5,175.5z"/>
	<path id="XMLID_1912_" class="st12" d="M199.2,85.6c-4.8-1.3-8.6,9-1.4,9C202.6,94.7,203.3,86.7,199.2,85.6z"/>
	<path id="XMLID_1937_" class="st12" d="M224.3,130.5c1.9-2.7-1.4-8.1-4.2-5.2C216.3,129.4,221.3,134.9,224.3,130.5z"/>
</g>
</svg>
