<?xml version="1.0" encoding="utf-8"?>
<!-- Generator: Adobe Illustrator 21.0.2, SVG Export Plug-In . SVG Version: 6.00 Build 0)  -->
<svg version="1.1" id="Layer_1" xmlns="http://www.w3.org/2000/svg" xmlns:xlink="http://www.w3.org/1999/xlink" x="0px" y="0px"
	 viewBox="0 0 300 300" style="enable-background:new 0 0 300 300;" xml:space="preserve">
<style type="text/css">
	.st0{fill:#BEDD5B;}
	.st1{fill:#F9F9F7;}
	.st2{fill:#353533;}
	.st3{fill:#E2E2E2;}
	.st4{fill:#E8612D;}
	.st5{fill:#B1C94F;}
	.st6{fill:#21211F;}
	.st7{fill:#EFEFE8;}
</style>
<g>
	<g>
		<g>
			<g>
				<path class="st0" d="M166.1,132.6c0,0,23.3-16.3,27.4-45.5l6-2.2c0,0,6.9,26.9-14.6,49.3L166.1,132.6z"/>
			</g>
			<g>
				<circle class="st0" cx="194.6" cy="64.1" r="26.1"/>
				<g>
					<circle class="st1" cx="194.6" cy="64.1" r="20.6"/>
					<g>
						<circle class="st2" cx="194.6" cy="64.1" r="5.1"/>
						<circle class="st1" cx="197.9" cy="61.2" r="2.9"/>
					</g>
					<path class="st3" d="M194.6,84.7c11.4,0,20.6-9.2,20.6-20.6c0-6.4-2.9-12.1-7.5-15.9c8.6,13-2.2,29.6-14.7,28.7
						c-12.5-0.9-19-12.8-19-12.8C174,75.5,183.3,84.7,194.6,84.7z"/>
				</g>
			</g>
			<path class="st4" d="M190.6,99l9.5,2.8c0.2-1.6,0.3-3.1,0.3-4.5l-8.7-2C191.4,96.5,191,97.8,190.6,99z"/>
			<path class="st4" d="M186.8,107.7l10.2,7c0.5-1.5,1-2.9,1.4-4.4l-9.6-6.9C188.2,104.9,187.6,106.4,186.8,107.7z"/>
		</g>
		<g>
			<g>
				<g>
					<path class="st0" d="M133.5,132.6c0,0-23.3-16.3-27.4-45.5l-6-2.2c0,0-6.9,26.9,14.6,49.3L133.5,132.6z"/>
				</g>
				<circle class="st0" cx="105" cy="64.1" r="26.1"/>
				<circle class="st1" cx="105" cy="64.1" r="20.6"/>
				<g>
					<circle class="st2" cx="105" cy="64.1" r="5.1"/>
					<circle class="st1" cx="101.7" cy="61.2" r="2.9"/>
				</g>
				<path class="st3" d="M105,84.7c-11.4,0-20.6-9.2-20.6-20.6c0-6.4,2.9-12.1,7.5-15.9c-8.6,13,2.2,29.6,14.7,28.7
					c12.5-0.9,19-12.8,19-12.8C125.6,75.5,116.3,84.7,105,84.7z"/>
				<path class="st4" d="M109,99l-9.5,2.8c-0.2-1.6-0.3-3.1-0.3-4.5l8.7-2C108.2,96.5,108.6,97.8,109,99z"/>
			</g>
			<path class="st4" d="M112.8,107.7l-10.2,7c-0.5-1.5-1-2.9-1.4-4.4l9.6-6.9C111.4,104.9,112,106.4,112.8,107.7z"/>
		</g>
	</g>
	<g>
		<g>
			<path class="st0" d="M127.7,235.7l-3.2-0.4l-3.2-0.5c-0.1,0.4-0.5,3.9,1.6,9.3c0.7,1.7,1.4,3.3,2.3,4.8
				c-5.7-1.5-15.1-3.3-27.9-3.3c-21.9,0-28,16.7-8.5,16.7c16.2,0,40.9,0,48.7,0h2.4h3.6C126.7,249.4,127.7,235.8,127.7,235.7z"/>
			<path class="st0" d="M172,235.7l3.2-0.4l3.2-0.5c0.1,0.4,0.5,3.9-1.6,9.3c-0.7,1.7-1.4,3.3-2.3,4.8c5.7-1.5,15.1-3.3,27.9-3.3
				c21.9,0,28,16.7,8.5,16.7c-16.2,0-40.9,0-48.7,0h-2.4h-3.6C173,249.4,172,235.8,172,235.7z"/>
			<path class="st5" d="M134.6,253.7C134.6,253.7,134.6,253.7,134.6,253.7c1.8,8-20.3,5-37.1,4.7c-14.9-0.2-19.4-2.8-20.3-3.4
				c-0.9,3.8,2.6,7.4,11.6,7.4c16.2,0,40.9,0,48.7,0h2.4h3.6C139.7,259.5,136.8,256.5,134.6,253.7z"/>
			<path class="st5" d="M212.7,247.1c13.2,10.8-41.6,12.2-53,12.3c-1.1,1-2.2,2-3.5,2.9h3.6h2.4c7.8,0,32.4,0,48.7,0
				C226.9,262.4,225.7,251.2,212.7,247.1z"/>
		</g>
		<g>
			<path class="st0" d="M208.7,136.5c-16.7-33.4-51-36.4-58.4-36.6l0,0c0,0-0.3,0-0.7,0c-0.5,0-0.7,0-0.7,0l0,0
				c-7.4,0.3-41.7,3.3-58.4,36.6C71.7,174,59.2,228.2,80.6,234c19,5.2,47.7,4.5,68.9,4.2c21.2,0.2,50,0.9,68.9-4.2
				C240,228.2,227.5,174,208.7,136.5z"/>
			<g>
				<path class="st5" d="M213.3,146.3C213.3,146.4,213.3,146.4,213.3,146.3c-0.4-0.9-0.8-1.8-1.2-2.7
					C212.3,144.4,212.7,145.3,213.3,146.3z"/>
				<path class="st5" d="M216.7,154.5c7,21.5,5.3,55.3-1.4,64.8c-7.7,10.9-94.4,11.4-114.1,9.8c-16.9-1.4-28.1-7.6-31-9.3
					c1.4,7.5,4.7,12.6,10.5,14.2c19,5.2,47.7,4.5,68.9,4.2c21.2,0.2,50,0.9,68.9-4.2C236.7,229,230.5,189.3,216.7,154.5z"/>
			</g>
		</g>
		<g>
			<path class="st4" d="M176.7,120.6c-12.9,1-14.8,10.7-26.9,10.7c-12.1,0-15.7-10.9-27.4-10.7c-13.1,0.2-20.9,45.5,27.1,45.5l0,0
				l0,0c0,0,0,0,0,0l0,0C197.6,166.1,190.8,119.5,176.7,120.6z"/>
			<g>
				<path class="st6" d="M174.8,123.8c-11.2,4.4-14,11.3-25.2,11.3c-11.2,0-14-6.9-25.2-11.3c-11.2-4.4-19.4,39.6,25.2,39.6l0,0l0,0
					c0,0,0,0,0,0l0,0C194.2,163.3,186,119.4,174.8,123.8z"/>
				<g>
					<path class="st7" d="M148.7,135c-5-0.8-6.6-1.1-9.4-2.6l-1.8-1.1c0,0-1,16.1,7.3,16.1C153.1,147.4,148.7,135,148.7,135z"/>
					<path class="st7" d="M157,146.3c7.1,0,6.1-12,5.6-15.6c-3.2,2.1-4.5,2.7-9.8,4.1C152.3,138.7,150.9,146.3,157,146.3z"/>
				</g>
			</g>
		</g>
		<g>
			<g>
				
					<ellipse transform="matrix(0.3165 -0.9486 0.9486 0.3165 -83.2076 206.5361)" class="st5" cx="101.7" cy="161" rx="10.7" ry="6.2"/>
				
					<ellipse transform="matrix(0.5327 -0.8463 0.8463 0.5327 -73.4251 149.6241)" class="st5" cx="98.8" cy="141.3" rx="7.8" ry="4.5"/>
				
					<ellipse transform="matrix(0.5324 -0.8465 0.8465 0.5324 -93.2133 149.6463)" class="st5" cx="88.9" cy="159.2" rx="6.3" ry="3.6"/>
				
					<ellipse transform="matrix(0.9515 -0.3076 0.3076 0.9515 -47.4855 42.7794)" class="st5" cx="111.9" cy="172" rx="3.3" ry="5.7"/>
				
					<ellipse transform="matrix(0.3696 -0.9292 0.9292 0.3696 -109.2209 194.6678)" class="st5" cx="88.9" cy="177.8" rx="6.8" ry="3.9"/>
			</g>
			<g>
				
					<ellipse transform="matrix(0.9486 -0.3165 0.3165 0.9486 -40.8837 70.345)" class="st5" cx="196.1" cy="161" rx="6.2" ry="10.7"/>
				
					<ellipse transform="matrix(0.8463 -0.5327 0.5327 0.8463 -44.6842 127.7341)" class="st5" cx="199" cy="141.3" rx="4.5" ry="7.8"/>
				
					<ellipse transform="matrix(0.8465 -0.5324 0.5324 0.8465 -52.6835 135.6856)" class="st5" cx="208.9" cy="159.2" rx="3.6" ry="6.3"/>
				
					<ellipse transform="matrix(0.3076 -0.9515 0.9515 0.3076 -34.9932 295.9269)" class="st5" cx="185.8" cy="172" rx="5.7" ry="3.3"/>
				
					<ellipse transform="matrix(0.9292 -0.3696 0.3696 0.9292 -50.9288 89.8178)" class="st5" cx="208.9" cy="177.8" rx="3.9" ry="6.8"/>
			</g>
		</g>
	</g>
	<g>
		<g>
			<path class="st0" d="M246.2,194.4l-0.7-0.1c-0.8-10.6-6.1-48.1-42.7-61.8l3.2,16.1c0,0,28.6,11.5,33.5,45.1
				c-3.4,0.2-12.1,1.2-10.2,4.9c2.3,4.5,9.8,0,9.8,0s-5.2,5.1-3.8,8.5c1.4,3.4,7.4-7.2,7.4-7.2s0.7,7,3.2,8.7c2.5,1.7,1-9.5,1-9.5
				s6.5,2.8,7.9,0.5C256.3,197.3,246.2,194.4,246.2,194.4z"/>
			<path class="st4" d="M219.9,157.7c1,0.9,2.1,1.9,3.1,2.9l2.3-13.6c-1.2-1.2-2.4-2.3-3.7-3.4L219.9,157.7z"/>
			<path class="st4" d="M228.9,167.4l5.6-8.5c-0.8-1.3-1.6-2.5-2.4-3.8l-5.6,9.2C227.3,165.3,228.1,166.3,228.9,167.4z"/>
			<path class="st4" d="M234.2,176.2l6.4-4.5c-0.5-1.3-1-2.6-1.5-3.8l-6.6,5.1C233.1,174,233.6,175.1,234.2,176.2z"/>
			<path class="st4" d="M243.5,181.4l-6.2,2.7c0.4,1.2,0.7,2.4,1,3.6l6-2.3C244.1,184.1,243.8,182.8,243.5,181.4z"/>
		</g>
		<g>
			<path class="st0" d="M52.7,194.4l0.7-0.1c0.8-10.6,6.1-48.1,42.7-61.8l-3.2,16.1c0,0-28.7,11.5-33.5,45.1
				c3.4,0.2,12.1,1.2,10.2,4.9c-2.3,4.5-9.8,0-9.8,0s5.2,5.1,3.8,8.5c-1.4,3.4-7.4-7.2-7.4-7.2s-0.7,7-3.2,8.7c-2.5,1.7-1-9.5-1-9.5
				s-6.5,2.8-7.9,0.5C42.6,197.3,52.7,194.4,52.7,194.4z"/>
			<path class="st4" d="M78.9,157.7c-1,0.9-2.1,1.9-3.1,2.9L73.5,147c1.2-1.2,2.4-2.3,3.7-3.4L78.9,157.7z"/>
			<path class="st4" d="M70,167.4l-5.6-8.5c0.8-1.3,1.6-2.5,2.4-3.8l5.6,9.2C71.6,165.3,70.8,166.3,70,167.4z"/>
			<path class="st4" d="M64.7,176.2l-6.4-4.5c0.5-1.3,1-2.6,1.5-3.8l6.6,5.1C65.8,174,65.2,175.1,64.7,176.2z"/>
			<path class="st4" d="M55.4,181.4l6.2,2.7c-0.4,1.2-0.7,2.4-1,3.6l-6-2.3C54.8,184.1,55.1,182.8,55.4,181.4z"/>
		</g>
	</g>
</g>
</svg>
