<?xml version="1.0" encoding="utf-8"?>
<!-- Generator: Adobe Illustrator 21.0.2, SVG Export Plug-In . SVG Version: 6.00 Build 0)  -->
<svg version="1.1" id="Layer_1" xmlns="http://www.w3.org/2000/svg" xmlns:xlink="http://www.w3.org/1999/xlink" x="0px" y="0px"
	 viewBox="0 0 300 300" style="enable-background:new 0 0 300 300;" xml:space="preserve">
<style type="text/css">
	.st0{fill:#045494;}
	.st1{fill:#003968;}
	.st2{fill:#10A2E2;}
	.st3{fill:#FFD904;}
	.st4{fill:#D39200;}
	.st5{fill:#0971B7;}
	.st6{fill:#FFDA04;}
	.st7{fill:#1D1D1B;}
	.st8{fill:#490808;}
	.st9{fill:#FFFCC5;}
	.st10{fill:#4DCBE8;}
</style>
<g>
	<g>
		<g>
			<path class="st0" d="M83.6,157.7c0,0-18.7,6.9-18.2,11.4c0.5,4.4,19,6.1,23.9,13.9s-5.2,15.6-10.2,17.3s-1.3-6.4-1.3-6.4
				s-8.3,4.1-9.9-0.7c-1.3-3.9,9.9-10.2,9.9-10.2s-23.9-3.7-24-11.9c-0.1-8.2,21.3-18.1,28.3-19.6C89.1,149.9,83.6,157.7,83.6,157.7
				z"/>
			<path class="st0" d="M216.4,159.2c0,0,18.7,6.9,18.2,11.4s-19,6.1-23.9,13.9c-5,7.8,5.2,15.6,10.2,17.3c5,1.7,1.3-6.4,1.3-6.4
				s8.3,4.1,9.9-0.7c1.3-3.9-9.9-10.2-9.9-10.2s23.9-3.7,24-11.9s-21.3-18.1-28.3-19.6C210.9,151.4,216.4,159.2,216.4,159.2z"/>
		</g>
		<g>
			<g>
				<path class="st0" d="M124,197.8c0,0,0.2,18.7-7,25.2c-7.2,6.5-9.5,7.7-16,2.7c-6.5-5-13.5,2.9-14.7,7.6s0,7.7,1.2,7.9
					c1.2,0.2,8.7-9.5,13.5-6.5c4.7,3,18.5,12,28.9-4.5c0,0-2.5,8-6.5,11s-8.5,12.2-6,18.2c2.5,6,8.2,8,9.7,7s-0.2-12.5,4-16.5
					c4.2-4,16.3-8.2,17.5-18.7c0,0,3.7,12.1,13.3,12.8s16.6-4.1,22.3-2.1c5.7,2,8.7,8.7,11.2,7.5c2.5-1.2-2.2-15-15-17.2
					c0,0,12-6.2,20-5.2c8,1,9,5.5,11.2,4.2c2.2-1.2,1-11.2-7-13.2s-17.7,3.8-22.4,2.8c-4.7-1-13.7-6.2-11.7-20.4
					C172.6,186.1,124,197.8,124,197.8z"/>
				<g>
					<g>
						<g>
							<g>
								<g>
									<path class="st1" d="M129.5,231.5c0,0,0.1-0.3,0.2-0.7c0.1-0.5,0.3-1.1,0.5-1.9c0.1-0.4,0.2-0.8,0.3-1.3
										c0.1-0.5,0.1-0.9,0.2-1.4c0.1-0.5,0.2-1,0.2-1.5c0.1-0.5,0.1-1.1,0.1-1.6c0-0.5,0.1-1.1,0.1-1.6c0-0.5,0-1,0-1.5
										c0-0.5,0-1-0.1-1.5c0-0.5-0.1-0.9-0.1-1.3c-0.1-0.8-0.2-1.5-0.2-2c-0.1-0.5-0.1-0.8-0.1-0.8s0.1,0.2,0.4,0.7
										c0.2,0.4,0.5,1.1,0.8,1.9c0.1,0.4,0.3,0.8,0.4,1.3c0.1,0.5,0.2,1,0.3,1.5c0.1,0.5,0.1,1.1,0.1,1.6c0,0.6,0,1.1,0,1.7
										c-0.1,0.6-0.1,1.1-0.2,1.7c-0.1,0.6-0.2,1.1-0.3,1.6c-0.1,0.5-0.3,1-0.5,1.5c-0.2,0.5-0.3,0.9-0.5,1.3
										c-0.3,0.8-0.7,1.4-1,1.8C129.7,231.3,129.5,231.5,129.5,231.5z"/>
								</g>
							</g>
						</g>
					</g>
					<g>
						<g>
							<g>
								<g>
									<path class="st1" d="M149.4,233.2c0,0-0.6-0.9-1.3-2.3c-0.2-0.4-0.3-0.7-0.5-1.2c-0.2-0.4-0.3-0.9-0.5-1.3
										c-0.1-0.5-0.3-1-0.4-1.4c-0.1-0.5-0.2-1-0.4-1.5c-0.1-0.5-0.2-1-0.3-1.5c-0.1-0.5-0.1-1-0.2-1.5c0-0.5-0.1-1-0.1-1.4
										c0-0.4,0-0.9,0-1.3c0-0.8,0.1-1.4,0.2-1.9c0.1-0.5,0.1-0.7,0.1-0.7s0.1,0.3,0.2,0.7c0.1,0.4,0.2,1.1,0.4,1.8
										c0.1,0.4,0.2,0.8,0.2,1.2c0.1,0.4,0.2,0.9,0.3,1.4c0.1,0.5,0.2,1,0.3,1.4c0.1,0.5,0.2,1,0.3,1.5c0.1,0.5,0.2,1,0.3,1.5
										c0.1,0.5,0.2,1,0.3,1.4c0.1,0.5,0.2,0.9,0.3,1.3c0.1,0.4,0.2,0.8,0.3,1.2C149.2,232.1,149.4,233.2,149.4,233.2z"/>
								</g>
							</g>
						</g>
					</g>
					<g>
						<g>
							<g>
								<g>
									<path class="st1" d="M181.4,232.2c0,0-0.1,0-0.3-0.1c-0.2,0-0.5-0.1-0.9-0.1c-0.7-0.1-1.8-0.1-3,0.1
										c-0.6,0.1-1.3,0.1-2.1,0.2c-0.7,0.1-1.5,0.1-2.4,0.1c-0.8,0-1.7-0.2-2.6-0.5c-0.9-0.3-1.7-0.8-2.4-1.4
										c-0.7-0.6-1.3-1.3-1.8-2c-0.5-0.7-0.9-1.5-1.2-2.3c-0.3-0.8-0.5-1.6-0.6-2.3c-0.1-0.7-0.2-1.5-0.2-2.1
										c-0.1-1.3,0-2.4,0.1-3.1c0.1-0.7,0.1-1.2,0.1-1.2s0.1,0.4,0.2,1.2c0.1,0.7,0.2,1.8,0.5,3c0.1,0.6,0.3,1.3,0.5,2
										c0.2,0.7,0.4,1.4,0.7,2.1c0.3,0.7,0.7,1.4,1.2,2c0.5,0.6,1,1.2,1.6,1.7c0.6,0.5,1.3,0.9,2,1.2c0.7,0.3,1.5,0.4,2.2,0.5
										c0.8,0.1,1.5,0.1,2.2,0.1c0.7,0,1.4,0,2.1,0.1c1.3,0.1,2.4,0.3,3.1,0.5c0.4,0.1,0.6,0.2,0.8,0.3
										C181.3,232.2,181.4,232.2,181.4,232.2z"/>
								</g>
							</g>
						</g>
					</g>
				</g>
			</g>
			<g>
				<circle class="st2" cx="139" cy="210.3" r="3.6"/>
				<circle class="st2" cx="139.5" cy="234.1" r="2.2"/>
				<circle class="st2" cx="158" cy="230.5" r="5.2"/>
				<g>
					<path class="st2" d="M120.7,226.2c3.1,0,5.7-2.5,5.7-5.7c0-2.8-2-5.1-4.7-5.6c-1,3.2-2.5,6.2-4.6,8.1c-0.3,0.3-0.6,0.6-0.9,0.8
						C117.1,225.2,118.8,226.2,120.7,226.2z"/>
					<path class="st2" d="M123.9,245.1c0-1.2-0.7-2.2-1.6-2.8c-1.3,1.3-2.5,3.2-3.5,5.3c0.5,0.4,1.2,0.7,1.9,0.7
						C122.4,248.3,123.9,246.9,123.9,245.1z"/>
					<path class="st2" d="M164.4,210.3c0,3.7,3,6.8,6.8,6.8c1.2,0,2.3-0.3,3.3-0.9c-2.5-2.7-4.3-6.8-4.2-12.6
						C167,203.9,164.4,206.8,164.4,210.3z"/>
				</g>
			</g>
		</g>
		<g>
			<g>
				<g>
					<path class="st3" d="M212.8,122.5c0,0,23.3,3.8,20.3-19.1c0,0,16,13.5,6.4,29.6c-7.7,12.9-26.7,11-26.7,11V122.5z"/>
					<g>
						<g>
							<g>
								<g>
									<path class="st4" d="M219.3,123.6c0,0,0.2,0.2,0.6,0.6c0.3,0.4,0.8,1,1.3,1.7c0.2,0.4,0.5,0.8,0.7,1.3
										c0.2,0.5,0.5,1,0.7,1.5c0.2,0.5,0.4,1.1,0.6,1.6c0.2,0.6,0.3,1.2,0.5,1.7c0.1,0.6,0.2,1.2,0.3,1.8c0.1,0.6,0.1,1.2,0.1,1.7
										c0,0.6,0,1.1,0,1.6c0,0.5-0.1,1-0.2,1.4c-0.1,0.9-0.3,1.6-0.5,2.1c-0.2,0.5-0.3,0.8-0.3,0.8s0-0.3,0-0.8
										c0-0.5,0-1.3-0.1-2.1c0-0.4-0.1-0.9-0.1-1.4c0-0.5-0.1-1-0.1-1.5c-0.1-0.5-0.1-1.1-0.2-1.6c-0.1-0.6-0.2-1.1-0.3-1.7
										c-0.1-0.6-0.2-1.1-0.4-1.7c-0.1-0.6-0.3-1.1-0.4-1.6c-0.2-0.5-0.3-1-0.5-1.5c-0.2-0.5-0.3-0.9-0.5-1.3
										c-0.3-0.8-0.6-1.5-0.8-2C219.4,123.8,219.3,123.6,219.3,123.6z"/>
								</g>
							</g>
						</g>
					</g>
					<g>
						<g>
							<g>
								<g>
									<path class="st4" d="M226,121.7c0,0,0.3,0.1,0.8,0.2c0.2,0.1,0.5,0.2,0.9,0.3c0.3,0.1,0.7,0.3,1.1,0.5
										c0.4,0.2,0.8,0.4,1.2,0.7c0.4,0.3,0.8,0.6,1.2,1c0.4,0.4,0.8,0.8,1.2,1.2c0.4,0.4,0.7,0.9,1.1,1.4c0.3,0.5,0.6,1,0.9,1.5
										c0.3,0.5,0.5,1.1,0.6,1.6c0.2,0.5,0.3,1,0.4,1.5c0.1,0.5,0.2,1,0.2,1.4c0,0.4,0,0.8,0,1.2c0,0.4,0,0.7-0.1,0.9
										c-0.1,0.5-0.1,0.8-0.1,0.8s-0.1-0.3-0.2-0.8c0-0.2-0.1-0.5-0.2-0.9c-0.1-0.3-0.2-0.7-0.3-1.1c-0.1-0.4-0.3-0.8-0.4-1.3
										c-0.1-0.4-0.4-0.9-0.5-1.4c-0.2-0.5-0.4-0.9-0.7-1.4c-0.2-0.5-0.5-0.9-0.8-1.4c-0.3-0.4-0.6-0.9-0.9-1.3
										c-0.3-0.4-0.7-0.8-1-1.2c-0.4-0.4-0.7-0.7-1-1c-0.3-0.3-0.7-0.6-1-0.9c-0.3-0.3-0.6-0.5-0.9-0.7c-0.3-0.2-0.5-0.4-0.7-0.5
										C226.2,121.9,226,121.7,226,121.7z"/>
								</g>
							</g>
						</g>
					</g>
					<g>
						<g>
							<g>
								<g>
									<path class="st4" d="M232,117.2c0,0,0.2-0.1,0.5-0.2c0.3-0.1,0.8-0.2,1.3-0.2c0.3,0,0.6,0,0.9,0.1c0.3,0,0.7,0.1,1,0.2
										c0.3,0.1,0.7,0.2,1,0.4c0.3,0.2,0.7,0.4,1,0.6c0.3,0.2,0.6,0.5,0.9,0.7c0.3,0.2,0.5,0.5,0.7,0.8c0.2,0.3,0.4,0.6,0.6,0.9
										c0.2,0.3,0.3,0.6,0.4,0.8c0.2,0.5,0.3,1,0.3,1.3c0,0.3,0,0.5,0,0.5s-0.1-0.1-0.3-0.4c-0.2-0.3-0.4-0.6-0.8-1
										c-0.2-0.2-0.3-0.4-0.5-0.6c-0.2-0.2-0.4-0.4-0.6-0.6c-0.2-0.2-0.5-0.4-0.7-0.6c-0.2-0.2-0.5-0.4-0.8-0.6
										c-0.3-0.2-0.5-0.4-0.8-0.5c-0.3-0.2-0.6-0.3-0.8-0.5c-0.3-0.1-0.5-0.3-0.8-0.4c-0.3-0.1-0.5-0.2-0.8-0.3
										c-0.5-0.2-0.9-0.3-1.2-0.3C232.2,117.3,232,117.2,232,117.2z"/>
								</g>
							</g>
						</g>
					</g>
				</g>
				<g>
					<path class="st3" d="M86.6,124.8c0,0-24.5,1.2-15.7-20.8c0,0-16.2,10.3-12.5,25.4c3.7,15.1,28.2,14.2,28.2,14.2V124.8z"/>
					<g>
						<g>
							<g>
								<g>
									<path class="st4" d="M77.5,124.3c0,0-0.2,0.2-0.5,0.5c-0.2,0.1-0.4,0.3-0.6,0.5c-0.2,0.2-0.5,0.4-0.7,0.7
										c-0.3,0.3-0.5,0.6-0.8,0.9c-0.3,0.3-0.5,0.7-0.8,1c-0.3,0.4-0.5,0.7-0.8,1.2c-0.3,0.4-0.5,0.8-0.7,1.2
										c-0.2,0.4-0.4,0.9-0.6,1.3c-0.2,0.4-0.3,0.9-0.5,1.3c-0.1,0.4-0.2,0.9-0.3,1.3c-0.1,0.4-0.2,0.8-0.2,1.2
										c-0.1,0.4-0.1,0.7-0.1,1c0,0.3-0.1,0.6-0.1,0.8c0,0.5,0,0.7,0,0.7s-0.1-0.2-0.2-0.7c-0.1-0.2-0.2-0.5-0.2-0.8
										c-0.1-0.3-0.1-0.7-0.2-1.1c-0.1-0.4,0-0.8,0-1.3c0-0.5,0.1-0.9,0.2-1.4c0.1-0.5,0.2-1,0.4-1.5c0.2-0.5,0.4-1,0.6-1.5
										c0.3-0.5,0.5-0.9,0.8-1.4c0.3-0.4,0.6-0.8,1-1.2c0.3-0.4,0.7-0.7,1-1c0.3-0.3,0.7-0.5,1-0.7c0.3-0.2,0.7-0.4,0.9-0.5
										c0.3-0.1,0.5-0.2,0.8-0.3C77.2,124.4,77.5,124.3,77.5,124.3z"/>
								</g>
							</g>
						</g>
					</g>
					<g>
						<g>
							<g>
								<g>
									<path class="st4" d="M70.4,121.5c0,0-0.2,0.1-0.6,0.2c-0.2,0.1-0.4,0.1-0.7,0.2c-0.2,0.1-0.5,0.2-0.8,0.3
										c-0.3,0.1-0.6,0.3-0.9,0.5c-0.3,0.2-0.6,0.4-1,0.6c-0.3,0.2-0.7,0.4-1,0.7c-0.3,0.2-0.6,0.5-0.9,0.8
										c-0.3,0.3-0.6,0.6-0.9,0.9c-0.3,0.3-0.5,0.6-0.8,0.9c-0.2,0.3-0.5,0.6-0.7,0.9c-0.2,0.3-0.4,0.6-0.5,0.9
										c-0.2,0.3-0.3,0.5-0.4,0.8c-0.1,0.2-0.2,0.4-0.3,0.6c-0.2,0.4-0.3,0.6-0.3,0.6s0-0.2,0-0.6c0-0.2,0-0.4,0-0.7
										c0-0.3,0.1-0.6,0.2-0.9c0.1-0.3,0.2-0.7,0.4-1.1c0.1-0.4,0.3-0.7,0.6-1.1c0.2-0.4,0.5-0.8,0.8-1.1c0.3-0.4,0.6-0.7,1-1
										c0.4-0.3,0.7-0.6,1.1-0.9c0.4-0.3,0.8-0.5,1.2-0.7c0.4-0.2,0.8-0.3,1.2-0.4c0.4-0.1,0.8-0.2,1.1-0.2
										c0.3-0.1,0.7-0.1,0.9-0.1c0.3,0,0.5,0,0.7,0C70.1,121.4,70.4,121.5,70.4,121.5z"/>
								</g>
							</g>
						</g>
					</g>
					<g>
						<g>
							<g>
								<g>
									<path class="st4" d="M68,116.1c0,0-0.1-0.1-0.3-0.2c-0.2-0.1-0.4-0.3-0.7-0.4c-0.1-0.1-0.3-0.1-0.5-0.2
										c-0.2-0.1-0.4-0.1-0.5-0.2c-0.2,0-0.4-0.1-0.6-0.1c-0.2-0.1-0.4-0.1-0.6-0.1c-0.2,0-0.4,0-0.6,0c-0.2,0-0.4,0-0.6,0
										c-0.2,0-0.4,0-0.6,0.1c-0.2,0-0.4,0.1-0.5,0.1c-0.3,0.1-0.6,0.2-0.8,0.3c-0.2,0.1-0.3,0.1-0.3,0.1s0-0.1,0.1-0.3
										c0.1-0.2,0.3-0.5,0.6-0.8c0.1-0.2,0.3-0.3,0.5-0.4c0.2-0.1,0.4-0.2,0.7-0.3c0.2-0.1,0.5-0.1,0.8-0.2c0.3,0,0.5,0,0.8,0
										c0.3,0.1,0.5,0.1,0.8,0.2c0.3,0.1,0.5,0.2,0.7,0.3c0.2,0.1,0.4,0.3,0.6,0.4c0.2,0.2,0.3,0.3,0.4,0.5
										c0.2,0.3,0.4,0.6,0.4,0.9C68,116,68,116.1,68,116.1z"/>
								</g>
							</g>
						</g>
					</g>
				</g>
			</g>
			<path class="st5" d="M133.1,67.9c-39.3,4.1-48.5,7.3-50,25.7c-1.5,18.4-3.4,62.4-2.7,75.5s0.2,26.5,32.1,32.3
				c31.9,5.8,95,3,101.9-12c6.9-15.1-0.5-96.3-2.8-113C209.3,59.6,165.1,64.5,133.1,67.9z"/>
			<g>
				<circle class="st2" cx="127.2" cy="123.1" r="14"/>
				<circle class="st2" cx="148.7" cy="151.5" r="7.4"/>
				<circle class="st2" cx="157.9" cy="126.4" r="7.5"/>
				<circle class="st2" cx="193.6" cy="156.4" r="3.7"/>
				<circle class="st2" cx="191.8" cy="116.9" r="16.5"/>
				<circle class="st2" cx="101" cy="123.1" r="4.5"/>
				<g>
					<path class="st2" d="M103.5,145c0-8-6.5-14.5-14.5-14.5c-3,0-5.8,0.9-8.2,2.5c-0.3,8.4-0.6,16.6-0.6,23.4c2.4,1.9,5.5,3,8.8,3
						C97.1,159.5,103.5,153,103.5,145z"/>
					<path class="st2" d="M214.8,135.7c-6.6,0-12,5.4-12,12c0,6.6,5.4,12,12,12c0.8,0,1.7-0.1,2.5-0.3c0-7.4-0.3-15.4-0.7-23.5
						C216,135.7,215.4,135.7,214.8,135.7z"/>
				</g>
			</g>
			<g>
				<g>
					<g>
						<path class="st6" d="M102.5,164.3h38.8c0,0-2.1,18.7-18.1,18.8C105.5,183.1,102.5,164.3,102.5,164.3z"/>
						<g>
							<path class="st7" d="M116.8,172.5c2-2.3,3.4-5.2,3.8-8.3h-18.1c0,0,1.2,7.6,6.7,13.1C112.1,176.5,114.8,174.8,116.8,172.5z"
								/>
						</g>
					</g>
					<g>
						<path class="st6" d="M160.1,164.3h38.8c0,0-2.1,18.7-18.1,18.8C163.1,183.1,160.1,164.3,160.1,164.3z"/>
						<g>
							<path class="st7" d="M174.4,172.5c2-2.3,3.4-5.2,3.8-8.3h-18.1c0,0,1.2,7.6,6.7,13.1C169.7,176.5,172.4,174.8,174.4,172.5z"
								/>
						</g>
					</g>
				</g>
				<g>
					<path class="st8" d="M139.8,184.7c3.6-0.1,5.1,5.1,10.7,4.5c5.6-0.6,4.5-4.1,10.9-4.5c6.4-0.4,6.2,14.6-9.2,15.5
						C134.2,201.4,132.8,184.9,139.8,184.7z"/>
					<g>
						<path class="st9" d="M141.3,191.3c0.5,1.1,6.3,3.6,7.4,2.2c0.6-0.7,0.8-2.6,0.8-4.3c-3.1,0-4.9-1.9-6.6-3.3
							C142.1,187.7,141,190.5,141.3,191.3z"/>
						<path class="st9" d="M155.3,192.5c1.1-0.1,6.7-1.9,6.7-3c0-0.7-1.5-2.9-2.7-4.6c-3.3,0.7-3.9,2.6-6.2,3.6
							C153.7,190.3,154.6,192.6,155.3,192.5z"/>
					</g>
				</g>
			</g>
		</g>
		<g>
			<path class="st10" d="M146.6,50.2c0,0-12.5-16.3-13.7-16.8c-1.2-0.6-1,14-1,14s-11.8-8.4-14.2-8c-2.4,0.4,1.3,9.4,1.3,9.4
				s-22.6-1.2-29.7,7.3c-7.1,8.6-10.9,31.6-12,41.9s2.3,21.1,6.2,20.7c3.9-0.5,9.7-4.2,13.3-12.8c0,0,2.2,13.4,13.5,13.2
				s14-13.1,14-13.1s4.8,15,14.1,14.4c9.3-0.6,14.9-16.1,14.9-16.1s2.1,16.7,13.9,16.1c11.8-0.6,13.7-15.7,13.7-15.7s2.4,14,14,13.9
				c11.6-0.1,10.5-12.8,10.5-12.8s0.6,11.7,7.2,12.2s10.4-11.1,9.8-27.5c-0.6-16.5-1.7-29.6-17-36.1c-15.2-6.5-32.4-6-34.5-5.8
				c0,0,0.3-5.1,1.6-6.4c0,0-6.6,0.4-11.2,3.9c0,0,1.9-5.8,3.2-7.3C164.5,38.8,154.1,39.6,146.6,50.2z"/>
			<g>
				<g>
					<path class="st3" d="M205.8,58.7c0,0,18.5-6.4,21-6.2c0,0-4.9,13.5-7.9,19.5c0,0-3.4-2.9-8.2-3
						C210.7,68.9,211.6,63.6,205.8,58.7z"/>
					<g>
						<g>
							<g>
								<g>
									<path class="st4" d="M211.8,57.7c0,0,0.8,0.2,1.8,0.8c0.3,0.2,0.5,0.3,0.8,0.5c0.3,0.2,0.6,0.4,0.8,0.7
										c0.3,0.3,0.5,0.5,0.8,0.8c0.3,0.3,0.5,0.6,0.8,0.9c0.2,0.3,0.5,0.7,0.7,1c0.2,0.3,0.4,0.7,0.5,1c0.2,0.3,0.3,0.7,0.4,1
										c0.1,0.3,0.2,0.6,0.3,0.9c0.2,0.6,0.2,1.1,0.2,1.4c0,0.3,0,0.5,0,0.5s-0.1-0.2-0.3-0.5c-0.2-0.3-0.4-0.7-0.7-1.2
										c-0.2-0.2-0.3-0.5-0.5-0.8c-0.2-0.3-0.4-0.6-0.5-0.8c-0.2-0.3-0.4-0.6-0.6-0.9c-0.2-0.3-0.4-0.6-0.6-0.9
										c-0.2-0.3-0.4-0.6-0.7-0.9c-0.2-0.3-0.4-0.6-0.7-0.8c-0.2-0.3-0.4-0.5-0.6-0.8c-0.2-0.2-0.4-0.5-0.6-0.7
										C212.3,58.3,211.8,57.7,211.8,57.7z"/>
								</g>
							</g>
						</g>
					</g>
					<g>
						<g>
							<g>
								<g>
									<path class="st4" d="M217.8,55.9c0,0,0.5,0.1,1.1,0.4c0.2,0.1,0.3,0.2,0.5,0.3c0.2,0.1,0.3,0.2,0.5,0.4
										c0.2,0.1,0.3,0.3,0.5,0.5c0.2,0.2,0.3,0.4,0.4,0.5c0.1,0.2,0.3,0.4,0.4,0.6c0.1,0.2,0.2,0.4,0.3,0.6
										c0.1,0.2,0.2,0.4,0.2,0.6c0.1,0.2,0.1,0.4,0.1,0.6c0.1,0.3,0.1,0.6,0.1,0.9c0,0.2,0,0.3,0,0.3s-0.1-0.1-0.3-0.2
										c-0.1-0.1-0.4-0.3-0.6-0.6c-0.1-0.1-0.2-0.3-0.3-0.4c-0.1-0.1-0.2-0.3-0.4-0.4c-0.1-0.2-0.3-0.3-0.4-0.5
										c-0.1-0.2-0.2-0.3-0.4-0.5c-0.1-0.2-0.2-0.3-0.4-0.5c-0.1-0.2-0.2-0.3-0.3-0.5c-0.1-0.2-0.2-0.3-0.3-0.5
										c-0.1-0.1-0.2-0.3-0.3-0.4C218,56.3,217.8,55.9,217.8,55.9z"/>
								</g>
							</g>
						</g>
					</g>
				</g>
				<g>
					<path class="st3" d="M105.5,57.2c0,0-16.5-7.9-23.4-8.7c0,0,3,9.7,7.9,20.5c0,0,2.4-2.6,6.5-3C96.6,65.9,92.6,56.2,105.5,57.2z
						"/>
					<g>
						<g>
							<g>
								<g>
									<path class="st4" d="M89,63.3c0,0,0.2-0.6,0.5-1.5c0.1-0.2,0.2-0.4,0.3-0.7c0.1-0.2,0.2-0.5,0.4-0.7
										c0.1-0.2,0.3-0.5,0.4-0.8c0.2-0.2,0.3-0.5,0.5-0.7c0.2-0.2,0.4-0.5,0.5-0.7c0.2-0.2,0.4-0.5,0.6-0.7
										c0.2-0.2,0.4-0.4,0.5-0.6c0.2-0.2,0.4-0.4,0.5-0.5c0.3-0.3,0.6-0.6,0.9-0.7c0.2-0.2,0.4-0.3,0.4-0.3s0,0.2-0.1,0.4
										c-0.1,0.3-0.2,0.6-0.4,1.1c-0.1,0.2-0.2,0.4-0.3,0.7c-0.1,0.2-0.2,0.5-0.4,0.7c-0.1,0.2-0.3,0.5-0.5,0.7
										c-0.2,0.2-0.3,0.5-0.5,0.7c-0.2,0.2-0.4,0.5-0.5,0.7c-0.2,0.2-0.4,0.5-0.6,0.7c-0.2,0.2-0.4,0.4-0.6,0.6
										c-0.2,0.2-0.4,0.4-0.5,0.5C89.6,62.9,89,63.3,89,63.3z"/>
								</g>
							</g>
						</g>
					</g>
					<g>
						<g>
							<g>
								<g>
									<path class="st4" d="M86.4,57c0,0-0.1-0.1-0.2-0.2c-0.1-0.2-0.3-0.4-0.4-0.8c-0.1-0.2-0.1-0.4-0.1-0.6c0-0.2,0-0.4,0-0.7
										c0-0.2,0.1-0.5,0.1-0.7c0.1-0.2,0.2-0.5,0.2-0.7c0.1-0.2,0.2-0.4,0.4-0.6c0.1-0.2,0.3-0.4,0.5-0.5c0.2-0.2,0.3-0.3,0.5-0.4
										c0.2-0.1,0.4-0.2,0.5-0.3c0.3-0.1,0.6-0.2,0.9-0.2c0.2,0,0.3,0,0.3,0s-0.1,0.1-0.2,0.3c-0.1,0.1-0.3,0.4-0.5,0.6
										c-0.1,0.1-0.2,0.3-0.3,0.4L87.8,53c-0.1,0.2-0.2,0.3-0.3,0.5c-0.1,0.1-0.2,0.3-0.3,0.5c-0.1,0.2-0.2,0.3-0.2,0.5
										c-0.1,0.2-0.1,0.3-0.2,0.5c0,0.2-0.1,0.3-0.2,0.5c0,0.2-0.1,0.3-0.1,0.5C86.4,56.5,86.4,57,86.4,57z"/>
								</g>
							</g>
						</g>
					</g>
				</g>
			</g>
		</g>
	</g>
</g>
</svg>
