<?xml version="1.0" encoding="utf-8"?>
<!-- Generator: Adobe Illustrator 21.0.2, SVG Export Plug-In . SVG Version: 6.00 Build 0)  -->
<svg version="1.1" id="Layer_1" xmlns="http://www.w3.org/2000/svg" xmlns:xlink="http://www.w3.org/1999/xlink" x="0px" y="0px"
	 viewBox="0 0 300 300" style="enable-background:new 0 0 300 300;" xml:space="preserve">
<style type="text/css">
	.st0{fill:#BC1B00;}
	.st1{fill:#FF2A00;}
	.st2{fill:#C91800;}
	.st3{fill:#A0229A;}
	.st4{fill:#C42CC4;}
	.st5{fill:#EA2100;}
	.st6{opacity:0.6;}
	.st7{fill:#FF6010;}
	.st8{fill:#FFDA04;}
	.st9{clip-path:url(#SVGID_2_);fill:#FFFFFF;}
	.st10{clip-path:url(#SVGID_4_);fill:#FFFFFF;}
	.st11{clip-path:url(#SVGID_6_);fill:#FFFFFF;}
	.st12{fill:#1D1D1B;}
</style>
<g>
	<g>
		<g>
			<g>
				<g>
					<g>
						<path class="st0" d="M245.6,89.1c0,0,0.4-0.3,1.1-0.7c0.2-0.1,0.3-0.2,0.5-0.3c0.2-0.1,0.4-0.2,0.6-0.2
							c0.2-0.1,0.4-0.1,0.7-0.2c0.2-0.1,0.5-0.1,0.7-0.2c0.2,0,0.5-0.1,0.7-0.1c0.2-0.1,0.5-0.1,0.7-0.1c0.2,0,0.4,0,0.6-0.1
							c0.2,0,0.4,0,0.6,0c0.4,0,0.7,0,0.9,0.1c0.2,0,0.4,0.1,0.4,0.1s-0.1,0.1-0.3,0.2c-0.2,0.1-0.4,0.3-0.8,0.5
							c-0.2,0.1-0.3,0.2-0.5,0.3c-0.2,0.1-0.4,0.2-0.6,0.2c-0.2,0.1-0.4,0.2-0.7,0.2c-0.2,0.1-0.5,0.1-0.7,0.2
							c-0.2,0-0.5,0.1-0.7,0.1c-0.2,0-0.5,0.1-0.7,0.1c-0.2,0-0.4,0-0.6,0c-0.2,0-0.4,0-0.6,0C246.1,89.2,245.6,89.1,245.6,89.1z"/>
					</g>
				</g>
			</g>
		</g>
		<g>
			<g>
				<path class="st1" d="M223.8,119.6c0,0,31.2,0.5,10.1-28.2c0,0-11.8,1.9-12.6-6c-0.8-7.9,12-4.6,12-4.6s-7.9-12,1.1-19.1
					c9-7.1,6.8,11.8,6.8,11.8s10.5-7.9,15.4-3c4.9,4.9-7.4,15.3-7.4,15.3s25.4,19.7,19.4,46.2c-6,26.5-32.8,30.1-36.6,30.4
					C228.1,162.5,223.8,119.6,223.8,119.6z"/>
				<g>
					<g>
						<g>
							<g>
								<path class="st0" d="M248.6,94.1c0,0,0.6-0.5,1.7-0.9c0.3-0.1,0.6-0.2,0.9-0.3c0.3-0.1,0.7-0.2,1-0.3
									c0.4-0.1,0.7-0.2,1.1-0.2c0.4-0.1,0.8-0.1,1.2-0.1c0.4,0,0.8,0,1.2,0c0.4,0,0.8,0.1,1.1,0.1c0.4,0.1,0.7,0.1,1.1,0.2
									c0.3,0.1,0.6,0.2,0.9,0.3c0.6,0.2,1,0.4,1.3,0.5c0.3,0.2,0.5,0.3,0.5,0.3s-0.2,0-0.5,0c-0.3,0-0.8,0-1.4,0
									c-0.3,0-0.6,0-0.9,0c-0.3,0-0.7,0-1,0c-0.3,0-0.7,0-1.1,0c-0.4,0-0.7,0-1.1,0c-0.4,0-0.7,0-1.1,0.1c-0.4,0-0.7,0-1.1,0.1
									c-0.3,0-0.7,0-1,0.1c-0.3,0-0.6,0.1-0.9,0.1C249.4,94,248.6,94.1,248.6,94.1z"/>
							</g>
						</g>
					</g>
				</g>
				<g>
					<g>
						<g>
							<g>
								<path class="st0" d="M254.9,102.7c0,0,0.8-0.4,2.2-0.6c0.3-0.1,0.7-0.1,1.1-0.1c0.4,0,0.8-0.1,1.2-0.1c0.4,0,0.9,0,1.3,0
									c0.4,0,0.9,0.1,1.3,0.1c0.4,0.1,0.9,0.1,1.3,0.2c0.4,0.1,0.8,0.2,1.3,0.3c0.4,0.1,0.8,0.2,1.1,0.4c0.4,0.1,0.7,0.3,1,0.4
									c0.6,0.3,1.1,0.6,1.4,0.8c0.3,0.2,0.5,0.4,0.5,0.4s-0.2,0-0.6-0.1c-0.4-0.1-0.9-0.2-1.6-0.3c-0.3-0.1-0.7-0.1-1-0.2
									c-0.4-0.1-0.7-0.1-1.1-0.2c-0.4-0.1-0.8-0.1-1.2-0.2c-0.4-0.1-0.8-0.1-1.3-0.2c-0.4-0.1-0.8-0.1-1.3-0.2
									c-0.4-0.1-0.8-0.1-1.2-0.1c-0.4,0-0.8-0.1-1.2-0.1c-0.4,0-0.7-0.1-1-0.1C255.8,102.8,254.9,102.7,254.9,102.7z"/>
							</g>
						</g>
					</g>
				</g>
				<g>
					<g>
						<g>
							<g>
								<path class="st0" d="M261.8,111.4c0,0,0.6-0.1,1.5-0.1c0.2,0,0.5,0,0.7,0.1c0.3,0,0.5,0.1,0.8,0.2c0.3,0.1,0.5,0.2,0.8,0.2
									c0.3,0.1,0.5,0.2,0.8,0.3c0.3,0.1,0.5,0.3,0.8,0.4c0.3,0.1,0.5,0.3,0.7,0.5c0.2,0.2,0.4,0.3,0.6,0.5
									c0.2,0.2,0.4,0.3,0.5,0.5c0.3,0.3,0.5,0.6,0.7,0.8c0.1,0.2,0.2,0.4,0.2,0.4s-0.1,0-0.4-0.1c-0.2-0.1-0.6-0.2-1-0.4
									c-0.2-0.1-0.4-0.2-0.6-0.3c-0.2-0.1-0.5-0.2-0.7-0.3c-0.2-0.1-0.5-0.2-0.7-0.3c-0.2-0.1-0.5-0.2-0.7-0.3
									c-0.2-0.1-0.5-0.2-0.7-0.3c-0.2-0.1-0.5-0.2-0.7-0.4c-0.2-0.1-0.5-0.2-0.7-0.3c-0.2-0.1-0.4-0.2-0.6-0.3
									C262.3,111.7,261.8,111.4,261.8,111.4z"/>
							</g>
						</g>
					</g>
				</g>
			</g>
			<g>
				<path class="st1" d="M82.7,127.2c0,0-13.4,0.8-19.1-12S71.2,93,71.2,93s13.4,2.7,15.6-5.7s-9.1-7.9-13.2-6.3
					c8.5-10.7,7.4-17.2,0-18s-9.3,10.1-8.7,16.4c-5.5-16.4-12-12.7-14.5-9c-2.5,3.7,4.9,15.2,4.1,13.9c0,0-25.2,22.7-21.3,45.7
					s24.3,42.1,52.5,30.9L82.7,127.2z"/>
				<g>
					<g>
						<g>
							<g>
								<path class="st0" d="M46.8,87c0,0,0.4-0.5,1.2-0.9c0.2-0.1,0.4-0.2,0.7-0.3c0.2-0.1,0.5-0.2,0.8-0.3
									c0.3-0.1,0.6-0.1,0.9-0.2c0.3,0,0.6,0,0.9,0c0.3,0,0.6,0,0.9,0.1c0.3,0,0.6,0.1,0.9,0.2c0.3,0.1,0.5,0.2,0.8,0.3
									c0.2,0.1,0.5,0.2,0.6,0.4c0.4,0.2,0.7,0.5,0.8,0.7c0.2,0.2,0.3,0.3,0.3,0.3s-0.2,0-0.4-0.1c-0.3,0-0.6-0.1-1-0.2
									c-0.2,0-0.4-0.1-0.7-0.1c-0.2,0-0.5-0.1-0.7-0.1c-0.3,0-0.5-0.1-0.8-0.1c-0.3,0-0.5,0-0.8-0.1c-0.3,0-0.5,0-0.8,0
									c-0.3,0-0.5,0-0.8,0c-0.2,0-0.5,0-0.7,0c-0.2,0-0.5,0-0.7,0.1C47.4,86.9,46.8,87,46.8,87z"/>
							</g>
						</g>
					</g>
				</g>
				<g>
					<g>
						<g>
							<g>
								<path class="st0" d="M39.2,93.3c0,0,0.6-0.6,1.6-1.1c0.3-0.1,0.6-0.3,0.9-0.4c0.3-0.1,0.7-0.2,1-0.3
									c0.4-0.1,0.7-0.2,1.1-0.2c0.4-0.1,0.8-0.1,1.2-0.1c0.4,0,0.8,0,1.2,0c0.4,0,0.8,0.1,1.1,0.2c0.4,0.1,0.7,0.2,1,0.3
									c0.3,0.1,0.6,0.2,0.9,0.3c0.5,0.2,1,0.5,1.2,0.7C50.8,92.9,51,93,51,93s-0.2,0-0.5-0.1c-0.3,0-0.8-0.1-1.4-0.2
									c-0.3,0-0.6-0.1-0.9-0.1c-0.3,0-0.6,0-1-0.1c-0.3,0-0.7,0-1,0c-0.4,0-0.7,0-1.1,0c-0.4,0-0.7,0-1.1,0.1
									c-0.4,0-0.7,0.1-1,0.1c-0.3,0.1-0.7,0.1-1,0.1c-0.3,0-0.6,0.1-0.9,0.1C40,93.2,39.2,93.3,39.2,93.3z"/>
							</g>
						</g>
					</g>
				</g>
				<g>
					<g>
						<g>
							<g>
								<path class="st0" d="M32.6,105.9c0,0,0.6-0.6,1.8-1.2c0.3-0.1,0.6-0.3,0.9-0.4c0.3-0.1,0.7-0.3,1.1-0.4
									c0.4-0.1,0.8-0.2,1.2-0.3c0.4-0.1,0.8-0.2,1.2-0.2c0.4,0,0.8-0.1,1.3-0.1c0.4,0,0.8,0,1.2,0c0.4,0,0.8,0,1.1,0.1
									c0.4,0,0.7,0.1,1,0.2c0.6,0.1,1.1,0.3,1.5,0.4c0.3,0.1,0.5,0.2,0.5,0.2s-0.2,0-0.6,0.1c-0.4,0-0.9,0.1-1.5,0.1
									c-0.3,0-0.6,0.1-1,0.1c-0.3,0-0.7,0.1-1.1,0.1c-0.4,0-0.8,0.1-1.1,0.1c-0.4,0-0.8,0.1-1.2,0.1c-0.4,0.1-0.8,0.1-1.2,0.2
									c-0.4,0-0.8,0.1-1.1,0.2c-0.4,0.1-0.7,0.1-1.1,0.2c-0.3,0.1-0.7,0.1-1,0.2C33.5,105.8,32.6,105.9,32.6,105.9z"/>
							</g>
						</g>
					</g>
				</g>
				<g>
					<g>
						<g>
							<g>
								<path class="st0" d="M30,120.2c0,0,0.3-0.7,1.1-1.6c0.2-0.2,0.4-0.5,0.6-0.7c0.2-0.2,0.5-0.5,0.7-0.7
									c0.3-0.2,0.6-0.5,0.9-0.7c0.3-0.2,0.6-0.4,0.9-0.6c0.3-0.2,0.7-0.4,1-0.6c0.3-0.2,0.7-0.3,1-0.5c0.3-0.1,0.6-0.3,1-0.4
									c0.3-0.1,0.6-0.2,0.9-0.3c0.6-0.1,1-0.2,1.4-0.2c0.3,0,0.5,0,0.5,0s-0.2,0.1-0.4,0.3c-0.3,0.2-0.7,0.5-1.1,0.7
									c-0.2,0.1-0.5,0.3-0.8,0.5c-0.3,0.2-0.5,0.3-0.8,0.5c-0.3,0.2-0.6,0.4-0.9,0.5c-0.3,0.2-0.6,0.4-0.9,0.6
									c-0.3,0.2-0.6,0.4-0.9,0.6c-0.3,0.2-0.6,0.4-0.9,0.6c-0.3,0.2-0.6,0.3-0.8,0.5c-0.3,0.2-0.5,0.3-0.8,0.5
									C30.7,119.9,30,120.2,30,120.2z"/>
							</g>
						</g>
					</g>
				</g>
			</g>
		</g>
		<g>
			<path class="st2" d="M210.7,185.6c0,0,8.3,21.1,4.4,39c0,0,13-8.6,26-2.1c8,4,6.5,14.8,4.9,15.9s-28.4,10.4-38.5-1.6
				c0,0,4.4-32.5-3.4-46.6L210.7,185.6z"/>
			<path class="st2" d="M171.7,192.9c0,0,7.7,19.6,4.1,36.3c0,0,12.1-8,24.2-1.9c7.5,3.7,6.1,13.8,4.6,14.8
				c-1.5,1-26.4,9.7-35.8-1.5c0,0,4.1-30.3-3.1-43.3L171.7,192.9z"/>
			<path class="st2" d="M105.5,185.6c0,0-8.3,21.1-4.4,39c0,0-13-8.6-26-2.1c-8,4-6.5,14.8-4.9,15.9c1.6,1,28.4,10.4,38.5-1.6
				c0,0-4.4-32.5,3.4-46.6L105.5,185.6z"/>
			<path class="st2" d="M144.5,192.9c0,0-7.7,19.6-4.1,36.3c0,0-12.1-8-24.2-1.9c-7.5,3.7-6.1,13.8-4.6,14.8
				c1.5,1,26.4,9.7,35.8-1.5c0,0-4.1-30.3,3.1-43.3L144.5,192.9z"/>
		</g>
		<g>
			<g>
				<g>
					<path class="st3" d="M191.7,85.9c0,0,9.1-1.1,12.5-8.8c3.5-7.7-1.9-17.2-1.9-17.2s13.9,7.4,15.8,17.2s-7.6,22.1-7.6,22.1
						L191.7,85.9z"/>
					<g>
						<g>
							<g>
								<g>
									<path class="st4" d="M202.4,83c0,0,0.2-0.1,0.6-0.2c0.4-0.1,0.9-0.3,1.6-0.3c0.3,0,0.7-0.1,1.1-0.1c0.4,0,0.8,0,1.2,0.1
										c0.4,0.1,0.9,0.1,1.3,0.2c0.4,0.1,0.9,0.3,1.3,0.4c0.4,0.2,0.8,0.4,1.2,0.6c0.4,0.2,0.8,0.5,1.1,0.7c0.3,0.3,0.7,0.5,1,0.8
										c0.3,0.3,0.5,0.5,0.8,0.8c0.4,0.5,0.7,1,0.9,1.3c0.2,0.4,0.3,0.6,0.3,0.6s-0.2-0.1-0.5-0.4c-0.3-0.2-0.7-0.5-1.3-0.9
										c-0.3-0.2-0.6-0.4-0.9-0.5c-0.3-0.2-0.6-0.4-1-0.6c-0.3-0.2-0.7-0.4-1.1-0.5c-0.4-0.2-0.7-0.3-1.1-0.5
										c-0.4-0.1-0.8-0.3-1.2-0.4c-0.4-0.1-0.8-0.2-1.1-0.3c-0.4-0.1-0.7-0.2-1.1-0.3c-0.4-0.1-0.7-0.1-1-0.2
										c-0.6-0.1-1.2-0.2-1.5-0.2C202.7,83,202.4,83,202.4,83z"/>
								</g>
							</g>
						</g>
					</g>
					<g>
						<g>
							<g>
								<g>
									<path class="st4" d="M206,76.5c0,0,0.1-0.1,0.4-0.3c0.3-0.2,0.7-0.3,1.2-0.5c0.3-0.1,0.5-0.2,0.8-0.2
										c0.3-0.1,0.6-0.1,1-0.1c0.3,0,0.7,0,1,0c0.4,0,0.7,0.1,1.1,0.2c0.3,0.1,0.7,0.2,1,0.3c0.3,0.1,0.7,0.3,1,0.4
										c0.3,0.2,0.6,0.3,0.8,0.5c0.3,0.2,0.5,0.4,0.7,0.5c0.4,0.4,0.7,0.7,0.9,1c0.2,0.3,0.3,0.4,0.3,0.4s-0.2-0.1-0.4-0.2
										c-0.3-0.1-0.7-0.3-1.1-0.5c-0.2-0.1-0.5-0.2-0.7-0.3c-0.3-0.1-0.5-0.2-0.8-0.3c-0.3-0.1-0.6-0.2-0.9-0.3
										c-0.3-0.1-0.6-0.2-0.9-0.2c-0.3-0.1-0.6-0.1-0.9-0.2c-0.3-0.1-0.6-0.1-0.9-0.1c-0.3,0-0.6-0.1-0.9-0.1
										c-0.3,0-0.5-0.1-0.8-0.1C206.8,76.5,206,76.5,206,76.5z"/>
								</g>
							</g>
						</g>
					</g>
					<g>
						<g>
							<g>
								<g>
									<path class="st4" d="M207.1,70.3c0,0,0.1-0.3,0.5-0.7c0.1-0.1,0.2-0.2,0.3-0.2c0.1-0.1,0.2-0.2,0.4-0.2
										c0.1-0.1,0.3-0.1,0.4-0.2l0.4-0.1l0.5-0.1c0.2,0,0.3,0,0.4,0c0.1,0,0.3,0,0.4,0.1c0.1,0,0.3,0.1,0.4,0.1
										c0.2,0.1,0.4,0.2,0.5,0.3c0.1,0.1,0.2,0.2,0.2,0.2s-0.1,0-0.2,0.1c-0.1,0.1-0.3,0.2-0.5,0.2c-0.1,0-0.2,0.1-0.3,0.1
										c-0.1,0-0.2,0.1-0.3,0.1c-0.1,0-0.2,0.1-0.4,0.1l-0.4,0.1l-0.4,0.1c-0.1,0-0.3,0-0.4,0c-0.1,0-0.2,0-0.4,0
										c-0.1,0-0.2,0-0.3,0C207.4,70.4,207.1,70.3,207.1,70.3z"/>
								</g>
							</g>
						</g>
					</g>
				</g>
				<g>
					<path class="st3" d="M121.8,85.9c0,0-7.6-8.6-8.4-17.8s2.5-14.4,2.5-14.4s-15.3,2.9-17.8,17s9,27.2,9,27.2L121.8,85.9z"/>
					<g>
						<g>
							<g>
								<g>
									<path class="st4" d="M102.4,85.7c0,0,0.4-0.8,1.2-1.8c0.2-0.3,0.5-0.5,0.7-0.8c0.3-0.3,0.6-0.5,0.9-0.8
										c0.3-0.2,0.7-0.5,1.1-0.7c0.4-0.2,0.8-0.4,1.2-0.7c0.4-0.2,0.8-0.4,1.2-0.5c0.4-0.2,0.8-0.3,1.2-0.4
										c0.4-0.1,0.8-0.2,1.2-0.2c0.4-0.1,0.7-0.1,1.1-0.1c0.7,0,1.2,0,1.6,0.1c0.4,0.1,0.6,0.1,0.6,0.1s-0.2,0.1-0.6,0.2
										c-0.4,0.1-0.9,0.3-1.5,0.5c-0.3,0.1-0.6,0.2-1,0.3c-0.3,0.1-0.7,0.3-1,0.4c-0.4,0.2-0.7,0.3-1.1,0.5
										c-0.4,0.1-0.7,0.3-1.1,0.5c-0.4,0.2-0.7,0.4-1.1,0.6c-0.4,0.2-0.7,0.4-1,0.6c-0.3,0.2-0.7,0.4-1,0.6
										c-0.3,0.2-0.6,0.4-0.9,0.6C103.1,85.2,102.4,85.7,102.4,85.7z"/>
								</g>
							</g>
						</g>
					</g>
					<g>
						<g>
							<g>
								<g>
									<path class="st4" d="M99.3,75.8c0,0,0.5-0.7,1.5-1.4c0.2-0.2,0.5-0.4,0.8-0.5c0.3-0.2,0.6-0.4,1-0.5
										c0.4-0.1,0.7-0.3,1.1-0.4c0.4-0.1,0.8-0.2,1.2-0.3c0.4-0.1,0.8-0.1,1.2-0.2c0.4-0.1,0.8,0,1.2,0c0.4,0,0.8,0,1.1,0.1
										c0.4,0,0.7,0.1,1,0.2c0.6,0.1,1.1,0.3,1.4,0.5c0.3,0.2,0.5,0.3,0.5,0.3s-0.2,0-0.6,0c-0.4,0-0.8,0-1.4,0.1
										c-0.3,0-0.6,0-0.9,0.1c-0.3,0-0.7,0.1-1,0.1c-0.4,0-0.7,0.1-1.1,0.1c-0.4,0-0.7,0.1-1.1,0.2c-0.4,0.1-0.7,0.1-1.1,0.2
										c-0.4,0.1-0.7,0.2-1.1,0.3c-0.3,0.1-0.7,0.2-1,0.3c-0.3,0.1-0.6,0.2-0.9,0.3C100.1,75.5,99.3,75.8,99.3,75.8z"/>
								</g>
							</g>
						</g>
					</g>
					<g>
						<g>
							<g>
								<g>
									<path class="st4" d="M103.7,65.2c0,0,0.3-0.5,1-0.9c0.2-0.1,0.4-0.2,0.6-0.3c0.2-0.1,0.4-0.2,0.7-0.2
										c0.2-0.1,0.5-0.1,0.7-0.2c0.3,0,0.5,0,0.8-0.1c0.3,0,0.5,0,0.8,0.1c0.3,0,0.5,0.1,0.7,0.2c0.2,0.1,0.5,0.2,0.7,0.3
										c0.2,0.1,0.4,0.2,0.5,0.3c0.3,0.2,0.6,0.5,0.7,0.6c0.1,0.2,0.2,0.3,0.2,0.3s-0.1,0-0.4,0c-0.2,0-0.5-0.1-0.9-0.1
										c-0.2,0-0.4,0-0.6-0.1c-0.2,0-0.4,0-0.6-0.1c-0.2,0-0.4,0-0.6,0c-0.2,0-0.4,0-0.7,0c-0.2,0-0.4,0-0.7,0c-0.2,0-0.4,0-0.6,0
										c-0.2,0-0.4,0-0.6,0c-0.2,0-0.4,0-0.6,0C104.3,65.2,103.7,65.2,103.7,65.2z"/>
								</g>
							</g>
						</g>
					</g>
				</g>
			</g>
			<g>
				<g>
					<path class="st5" d="M73.6,143.9c-1.3,34.4,27.9,68.4,86.4,65.1s80.4-43.8,80.9-65.1s-21.5-67.3-84.6-66.7
						S74.8,114.9,73.6,143.9z"/>
					<path class="st1" d="M84.8,139.4c-1.1,29.8,24.2,59.2,74.9,56.4c50.7-2.8,69.7-37.9,70.1-56.4c0.5-18.5-18.7-58.3-73.3-57.8
						S85.8,114.3,84.8,139.4z"/>
				</g>
				<g class="st6">
					<path class="st7" d="M126.3,103.6c4.5-4.8,1-14.3-3-21.9C112.6,84.8,104,89.4,97.2,95C105.9,100.9,120.6,109.5,126.3,103.6z"/>
					<path class="st7" d="M194.1,105.6c4.9,7.1,16.5-0.7,24.3-7.3c-6.2-5.6-13.9-10.6-23.2-14.4C192.3,90,189.6,98.9,194.1,105.6z"
						/>
					<path class="st7" d="M216.1,150.7c-4.4,9.2,7.6,17.9,14.6,22.1c6-9,9.2-18.2,10.1-25.7C231.8,144.6,219.8,143.1,216.1,150.7z"
						/>
					<path class="st7" d="M194.1,173.7c-7.4,6.1-5.7,21.1-4,29.6c12.6-4.4,22.5-10.8,30.1-18C213.2,178,201.2,167.9,194.1,173.7z"/>
					<path class="st7" d="M124.1,175.4c-7.1-7.2-23.5,5.7-31.9,13.2c7.2,6.8,16.6,12.4,28,16C124.6,196.1,130.8,182.1,124.1,175.4z"
						/>
					<path class="st7" d="M103.3,154.8c-3.6-9.1-19.7-8.3-29.7-6.8c0.4,12.5,4.8,24.7,13.3,35C95.3,175.6,106.7,163.5,103.3,154.8z"
						/>
				</g>
			</g>
			<g>
				<g>
					<g>
						<path class="st8" d="M190.5,129c1,17.2-14,32.2-33.2,33.2c-18.3,0.9-33.2-14.9-33.2-33.2s14.9-33.2,33.2-33.2
							S189.5,110.7,190.5,129z"/>
						<g>
							<defs>
								<path id="SVGID_1_" d="M186.3,121.5c0.6,12.8-8.5,22.8-23.6,23.6c-13,0.7-23.6-10.5-23.6-23.6S149.7,98,162.7,98
									C175.7,98,185.7,108.5,186.3,121.5z"/>
							</defs>
							<use xlink:href="#SVGID_1_"  style="overflow:visible;fill:#1D1D1B;"/>
							<clipPath id="SVGID_2_">
								<use xlink:href="#SVGID_1_"  style="overflow:visible;"/>
							</clipPath>
							<circle class="st9" cx="171.8" cy="112.4" r="14.4"/>
						</g>
					</g>
					<g>
						<path class="st8" d="M232.2,124.8c0.4,7.2-5.9,13.5-14,14c-7.7,0.4-14-6.2-14-14s6.2-14,14-14S231.7,117.1,232.2,124.8z"/>
						<g>
							<defs>
								<path id="SVGID_3_" d="M230.4,121.7c0.2,5.4-3.6,9.6-9.9,9.9c-5.5,0.3-9.9-4.4-9.9-9.9c0-5.5,4.4-9.9,9.9-9.9
									S230.1,116.2,230.4,121.7z"/>
							</defs>
							<use xlink:href="#SVGID_3_"  style="overflow:visible;fill:#1D1D1B;"/>
							<clipPath id="SVGID_4_">
								<use xlink:href="#SVGID_3_"  style="overflow:visible;"/>
							</clipPath>
							<circle class="st10" cx="224.3" cy="117.8" r="6.1"/>
						</g>
					</g>
					<g>
						<path class="st8" d="M111.9,127.5c0.4,7.2-5.9,13.5-14,14c-7.7,0.4-14-6.2-14-14s6.2-14,14-14S111.5,119.8,111.9,127.5z"/>
						<g>
							<defs>
								<path id="SVGID_5_" d="M110.2,124.4c0.2,5.4-3.6,9.6-9.9,9.9c-5.5,0.3-9.9-4.4-9.9-9.9s4.4-9.9,9.9-9.9
									C105.7,114.5,109.9,118.9,110.2,124.4z"/>
							</defs>
							<use xlink:href="#SVGID_5_"  style="overflow:visible;fill:#1D1D1B;"/>
							<clipPath id="SVGID_6_">
								<use xlink:href="#SVGID_5_"  style="overflow:visible;"/>
							</clipPath>
							<circle class="st11" cx="104.1" cy="120.5" r="6.1"/>
						</g>
					</g>
				</g>
				<g>
					<g>
						<g>
							<g>
								<g>
									<path class="st12" d="M149.8,171.1c0,0,0.9,0.8,2.2,1.7c0.3,0.2,0.7,0.4,1,0.7c0.3,0.2,0.8,0.3,1.1,0.5
										c0.4,0.1,0.8,0.3,1.2,0.3c0.2,0.1,0.4,0.1,0.6,0.1l0.6,0l0.6-0.1l0.3,0l0.3-0.1c0.4-0.2,0.9-0.2,1.3-0.5
										c0.4-0.2,0.8-0.3,1.2-0.6c0.4-0.2,0.8-0.4,1.1-0.6c0.7-0.4,1.3-0.8,1.8-1c0.5-0.2,0.7-0.4,0.7-0.4s-0.1,0.3-0.3,0.8
										c-0.2,0.5-0.5,1.2-1,1.9c-0.3,0.4-0.6,0.7-0.9,1.1c-0.3,0.4-0.8,0.7-1.3,1.1c-0.4,0.4-1,0.6-1.6,0.9l-0.5,0.2l-0.5,0.1
										l-1,0.2c-0.3,0-0.7,0-1,0c-0.3,0-0.7-0.1-1-0.2c-0.7-0.2-1.2-0.5-1.8-0.8c-0.5-0.3-1-0.7-1.3-1.1c-0.4-0.4-0.6-0.8-0.9-1.2
										c-0.5-0.8-0.7-1.5-0.8-2C149.8,171.4,149.8,171.1,149.8,171.1z"/>
								</g>
							</g>
						</g>
					</g>
					<g>
						<g>
							<g>
								<g>
									<path class="st12" d="M162.3,168.2c0,0,0.1,0.1,0.2,0.3c0.1,0.2,0.2,0.5,0.4,0.7c0.1,0.1,0.2,0.3,0.3,0.4
										c0.1,0.1,0.2,0.3,0.4,0.4c0.1,0.1,0.3,0.2,0.4,0.3c0.1,0.1,0.3,0.2,0.5,0.3c0.2,0.1,0.3,0.2,0.5,0.2
										c0.2,0.1,0.4,0.1,0.6,0.2c0.2,0,0.4,0.1,0.6,0.1c0.2,0,0.4,0.1,0.5,0.1c0.3,0,0.6,0.1,0.9,0.1c0.2,0,0.4,0,0.4,0
										s-0.1,0.1-0.3,0.2c-0.2,0.2-0.4,0.3-0.8,0.5c-0.2,0.1-0.4,0.1-0.6,0.2c-0.2,0.1-0.5,0.1-0.7,0.1c-0.3,0-0.5,0-0.8-0.1
										c-0.3-0.1-0.5-0.2-0.8-0.3c-0.3-0.1-0.5-0.3-0.7-0.5c-0.2-0.2-0.4-0.4-0.5-0.6c-0.2-0.2-0.2-0.5-0.3-0.7
										c-0.1-0.2-0.1-0.5-0.1-0.7c0-0.4,0-0.7,0.1-0.9C162.2,168.3,162.3,168.2,162.3,168.2z"/>
								</g>
							</g>
						</g>
					</g>
					<g>
						<g>
							<g>
								<g>
									<path class="st12" d="M146.9,171.9c0,0,0.4-0.3,0.9-0.5c0.1-0.1,0.3-0.2,0.4-0.2c0.1-0.1,0.3-0.2,0.4-0.2
										c0.1-0.1,0.3-0.2,0.4-0.2c0.1-0.1,0.3-0.2,0.4-0.3c0.1-0.1,0.2-0.2,0.3-0.3c0.1-0.1,0.2-0.2,0.3-0.3
										c0.1-0.1,0.1-0.2,0.2-0.3c0.1-0.1,0.1-0.2,0.2-0.4c0.1-0.2,0.2-0.5,0.3-0.6c0.1-0.2,0.1-0.3,0.1-0.3s0.1,0.1,0.2,0.3
										c0.1,0.2,0.2,0.4,0.2,0.8c0,0.2,0,0.4,0,0.6c0,0.2,0,0.4-0.1,0.6c-0.1,0.2-0.2,0.4-0.3,0.6c-0.2,0.2-0.3,0.4-0.5,0.5
										c-0.2,0.2-0.4,0.3-0.6,0.4c-0.2,0.1-0.4,0.2-0.6,0.2c-0.2,0.1-0.4,0.1-0.6,0.1c-0.2,0-0.4,0-0.5,0
										C147.3,172.1,146.9,171.9,146.9,171.9z"/>
								</g>
							</g>
						</g>
					</g>
				</g>
			</g>
		</g>
	</g>
</g>
</svg>
