<?xml version="1.0" encoding="utf-8"?>
<!-- Generator: Adobe Illustrator 21.0.2, SVG Export Plug-In . SVG Version: 6.00 Build 0)  -->
<svg version="1.1" id="Layer_1" xmlns="http://www.w3.org/2000/svg" xmlns:xlink="http://www.w3.org/1999/xlink" x="0px" y="0px"
	 viewBox="0 0 300 300" style="enable-background:new 0 0 300 300;" xml:space="preserve">
<style type="text/css">
	.st0{fill:#76003F;}
	.st1{fill:#DF4B00;}
	.st2{fill:#FFB705;}
	.st3{fill:#FF7543;}
	.st4{opacity:0.19;fill:#76003F;}
	.st5{fill:#FFFFFF;}
	.st6{fill:#353642;}
	.st7{opacity:0.33;fill:#76003F;}
</style>
<g>
	<g>
		<path class="st0" d="M84.9,195c0,0-9.8,14.1-7.7,46.3c2.2,32.1,27.8,0,27.8,0l-4.8-42L84.9,195z"/>
		<path class="st0" d="M214.2,195c0,0,9.8,14.1,7.7,46.3c-2.2,32.1-27.8,0-27.8,0l4.8-42L214.2,195z"/>
		<path class="st1" d="M209,191.6l-59.5,15.2l-59.5-15.3c0,0-5.3,42.2,0,60.2h59.5H209C214.3,233.8,209,191.6,209,191.6z"/>
		<g>
			<g>
				<path class="st2" d="M190.5,82.8c0,0,13.8-18.1-6.1-39.6c0,0,16.8,0.8,26.7,14.9c9.8,14.1-1.6,32.4-1.6,32.4"/>
				<path class="st0" d="M188.7,82.3c0.3-8.2,6.6-9.5,15-6.5c8.5,3,15.4,3,11.2,13.5"/>
			</g>
			<g>
				<path class="st2" d="M109.5,82.8c0,0-13.8-18.1,6.1-39.6c0,0-16.8,0.8-26.7,14.9c-9.8,14.1,1.6,32.4,1.6,32.4"/>
				<path class="st0" d="M111.3,82.3c-0.3-8.2-6.6-9.5-15-6.5c-8.5,3-15.4,3-11.2,13.5"/>
			</g>
			<path class="st3" d="M180,211.3H120c-35.8,0-65-29.2-65-65v-2.6c0-35.8,29.2-65,65-65H180c35.8,0,65,29.2,65,65v2.6
				C245,182.1,215.8,211.3,180,211.3z"/>
			<g>
				
					<ellipse transform="matrix(1.064768e-02 -0.9999 0.9999 1.064768e-02 65.4486 341.837)" class="st4" cx="205.5" cy="137.8" rx="23.2" ry="23.2"/>
				
					<ellipse transform="matrix(1.064983e-02 -0.9999 0.9999 1.064983e-02 69.454 337.9568)" class="st5" cx="205.5" cy="133.9" rx="23.2" ry="23.2"/>
				
					<ellipse transform="matrix(1.064552e-02 -0.9999 0.9999 1.064552e-02 69.455 337.9574)" class="st6" cx="205.5" cy="133.9" rx="12.3" ry="12.3"/>
				<path class="st1" d="M183.5,125.2c3.5-8.8,12.2-14.9,22.2-14.8c10,0.1,18.6,6.4,21.9,15.3L183.5,125.2z"/>
			</g>
			<g>
				
					<ellipse transform="matrix(1.064768e-02 -0.9999 0.9999 1.064768e-02 -44.3568 230.8561)" class="st4" cx="94.5" cy="137.8" rx="23.2" ry="23.2"/>
				
					<ellipse transform="matrix(1.064983e-02 -0.9999 0.9999 1.064983e-02 -40.3512 226.9759)" class="st5" cx="94.5" cy="133.9" rx="23.2" ry="23.2"/>
				
					<ellipse transform="matrix(1.064557e-02 -0.9999 0.9999 1.064557e-02 -40.3508 226.9765)" class="st6" cx="94.5" cy="133.9" rx="12.3" ry="12.3"/>
				<path class="st1" d="M72.5,125.2c3.5-8.8,12.2-14.9,22.2-14.8c10,0.1,18.6,6.4,21.9,15.3L72.5,125.2z"/>
			</g>
			<path class="st0" d="M195.5,186.4h-91c-5.5,0-10-4.5-10-10l0,0c0-5.5,4.5-10,10-10h91c5.5,0,10,4.5,10,10l0,0
				C205.5,182,201,186.4,195.5,186.4z"/>
			<polygon class="st5" points="107.4,166.8 112.2,175.4 117.2,166.8 			"/>
			<polygon class="st5" points="119.9,166.8 124.8,175.4 129.7,166.8 			"/>
			<polygon class="st5" points="132.5,166.8 137.4,175.4 142.3,166.8 			"/>
			<polygon class="st5" points="145.1,166.8 149.9,175.4 154.9,166.8 			"/>
			<polygon class="st5" points="157.7,166.8 162.5,175.4 167.5,166.8 			"/>
			<polygon class="st5" points="170.3,166.8 175.1,175.4 180.1,166.8 			"/>
			<polygon class="st5" points="182.8,166.8 187.7,175.4 192.6,166.8 			"/>
			<path class="st1" d="M174.3,78.7l-24.8-0.3l-24.8,0.3c0,0,25.6,32,7.7,88h17h17C148.8,111.8,174.3,78.7,174.3,78.7z"/>
		</g>
		<path class="st7" d="M179.2,252.2c1.2-3.1,1.9-6.4,1.9-9.9c0-14.6-12-26.6-26.6-26.6h-9.8c-14.6,0-26.6,12-26.6,26.6
			c0,3.5,0.7,6.8,1.9,9.9H179.2z"/>
		<g>
			<path class="st3" d="M142.2,256.8H78.5c-2.8,0-5-2.2-5-5v-14c0-2.8,2.2-5,5-5h63.8c2.8,0,5,2.2,5,5v14
				C147.2,254.5,145,256.8,142.2,256.8z"/>
			<path class="st1" d="M89.6,256.7c0.3-0.8,0.5-1.6,0.5-2.5c0-3.5-2.9-6.4-6.4-6.4c-3.5,0-6.4,2.9-6.4,6.4c0,0.9,0.2,1.7,0.5,2.5
				H89.6z"/>
			<path class="st1" d="M104.5,256.7c0.3-0.8,0.5-1.6,0.5-2.5c0-3.5-2.9-6.4-6.4-6.4c-3.5,0-6.4,2.9-6.4,6.4c0,0.9,0.2,1.7,0.5,2.5
				H104.5z"/>
			<path class="st1" d="M119.5,256.7c0.3-0.8,0.5-1.6,0.5-2.5c0-3.5-2.9-6.4-6.4-6.4s-6.4,2.9-6.4,6.4c0,0.9,0.2,1.7,0.5,2.5H119.5z
				"/>
		</g>
		<g>
			<path class="st3" d="M220.6,256.8h-63.8c-2.8,0-5-2.2-5-5v-14c0-2.8,2.2-5,5-5h63.8c2.8,0,5,2.2,5,5v14
				C225.6,254.5,223.4,256.8,220.6,256.8z"/>
			<g>
				<path class="st1" d="M209.5,256.7c-0.3-0.8-0.5-1.6-0.5-2.5c0-3.5,2.9-6.4,6.4-6.4s6.4,2.9,6.4,6.4c0,0.9-0.2,1.7-0.5,2.5H209.5
					z"/>
				<path class="st1" d="M194.6,256.7c-0.3-0.8-0.5-1.6-0.5-2.5c0-3.5,2.9-6.4,6.4-6.4c3.5,0,6.4,2.9,6.4,6.4c0,0.9-0.2,1.7-0.5,2.5
					H194.6z"/>
				<path class="st1" d="M179.6,256.7c-0.3-0.8-0.5-1.6-0.5-2.5c0-3.5,2.9-6.4,6.4-6.4s6.4,2.9,6.4,6.4c0,0.9-0.2,1.7-0.5,2.5H179.6
					z"/>
			</g>
		</g>
	</g>
</g>
</svg>
