<?xml version="1.0" encoding="utf-8"?>
<!-- Generator: Adobe Illustrator 21.0.2, SVG Export Plug-In . SVG Version: 6.00 Build 0)  -->
<svg version="1.1" id="Layer_1" xmlns="http://www.w3.org/2000/svg" xmlns:xlink="http://www.w3.org/1999/xlink" x="0px" y="0px"
	 viewBox="0 0 300 300" style="enable-background:new 0 0 300 300;" xml:space="preserve">
<style type="text/css">
	.st0{fill:#004260;}
	.st1{fill:#0083BF;}
	.st2{fill:#00AFFA;}
	.st3{opacity:0.19;fill:#76003F;}
	.st4{fill:#FFFFFF;}
	.st5{fill:#353642;}
	.st6{clip-path:url(#XMLID_2_);fill:#FFFFFF;}
</style>
<g>
	<g>
		<path class="st0" d="M102.7,223c0,0-9.2,5.5-12,14.6h6.1c0,0-7.9,5.5-6.1,14.5c0,0,16.7,15.5,48.1,3.3c0,0,3.6-3.8,0-10.6l5.9,2.7
			c0,0,4.8-9.1,0-13.9"/>
		<path class="st0" d="M197.3,223c0,0,9.2,5.5,12,14.6h-6.1c0,0,7.9,5.5,6.1,14.5c0,0-16.7,15.5-48.1,3.3c0,0-3.6-3.8,0-10.6
			l-5.9,2.7c0,0-4.8-9.1,0-13.9"/>
		<path class="st1" d="M215.7,174L150,204.1L84.3,174c0,0-7.8,23.5-2.9,39.6l2.9-3.1c0,0,6.2,22.2,19.7,30.6v-5.4
			c0,0,9.3,13.8,46,13.8c37,0,46-13.8,46-13.8v5.4c13.5-8.4,19.7-30.6,19.7-30.6l2.9,3.1C223.5,197.5,215.7,174,215.7,174z"/>
		<path class="st2" d="M84.3,170.9c0,0-18.2,14.2-21.8,40.3l4.8,0c0,0-8.4,5.9-4.8,34.4l4.8-3.9c0,0-6.1,14.3,5.7,19.1
			c11.8,4.8,25.6,2.5,26.8-6.6c2.5-18.8-8.8-26.6-8.1-31.1c0,0-7.9-26.8,2.2-42.4"/>
		<path class="st2" d="M215.7,170.9c0,0,18.2,14.2,21.8,40.3l-4.8,0c0,0,8.4,5.9,4.8,34.4l-4.8-3.9c0,0,6.1,14.3-5.7,19.1
			c-11.8,4.8-25.6,2.5-26.8-6.6c-2.5-18.8,8.8-26.6,8.1-31.1c0,0,7.9-26.8-2.2-42.4"/>
		<g>
			<g>
				<path class="st1" d="M69.6,38.7C65.4,43.8,50.4,73.6,84.7,90L116,69.4c0,0-22.3,5.8-33.7-10.5C71.5,43.6,75,32.2,69.6,38.7z"/>
				<path class="st1" d="M230.4,38.7c4.2,5.1,19.2,34.9-15.1,51.3L184,69.4c0,0,22.3,5.8,33.7-10.5C228.5,43.6,225,32.2,230.4,38.7z
					"/>
			</g>
			<path class="st2" d="M222.4,91.3h8c-5.9-17.2-28.7-27.4-28.7-27.4l9.4-1.3c-7.6-8-28-21.9-61.1-21.9S96.6,54.7,88.9,62.7l9.4,1.2
				c0,0-22.8,10.3-28.7,27.4h8c0,0-13.6,17.1-12.5,40.2l6.2-1.7c0,0-9.3,28.5,10.2,47l2.8-4.2c0,0,8,21.9,37.8,33v-6
				c0,0,11.5,7.8,28,7.8s28-7.8,28-7.8v6c29.8-11.1,37.8-33,37.8-33l2.8,4.2c19.5-18.5,10.2-46.9,10.2-46.9l6.1,1.6
				C235.9,108.4,222.4,91.3,222.4,91.3z"/>
			<g>
				<g>
					
						<ellipse transform="matrix(1.064682e-02 -0.9999 0.9999 1.064682e-02 -0.3878 226.6449)" class="st3" cx="114.3" cy="113.5" rx="19.1" ry="19.1"/>
					
						<ellipse transform="matrix(1.064682e-02 -0.9999 0.9999 1.064682e-02 2.9136 223.4472)" class="st4" cx="114.4" cy="110.3" rx="19.1" ry="19.1"/>
					
						<ellipse transform="matrix(1.064522e-02 -0.9999 0.9999 1.064522e-02 2.9138 223.4474)" class="st5" cx="114.4" cy="110.3" rx="10.1" ry="10.1"/>
				</g>
				<g>
					
						<ellipse transform="matrix(1.064682e-02 -0.9999 0.9999 1.064682e-02 69.2672 297.0455)" class="st3" cx="184.7" cy="113.5" rx="19.1" ry="19.1"/>
					
						<ellipse transform="matrix(1.064682e-02 -0.9999 0.9999 1.064682e-02 72.5686 293.8478)" class="st4" cx="184.8" cy="110.3" rx="19.1" ry="19.1"/>
					
						<ellipse transform="matrix(1.064522e-02 -0.9999 0.9999 1.064522e-02 72.5689 293.848)" class="st5" cx="184.8" cy="110.3" rx="10.1" ry="10.1"/>
				</g>
			</g>
			<path class="st0" d="M150,127.3c-11.7,0-31.5,8.5,0,21.8C181.5,135.7,161.7,127.3,150,127.3z"/>
			<g>
				<defs>
					<path id="XMLID_8_" d="M199.9,142.2c-6-1.5-16.5,8.2-49.4,8.2c-33,0-43.5-9.7-49.4-8.2c-6,1.5,13.5,36,49.4,36
						C186.4,178.2,205.9,143.7,199.9,142.2z"/>
				</defs>
				<use xlink:href="#XMLID_8_"  style="overflow:visible;fill:#0083BF;"/>
				<clipPath id="XMLID_2_">
					<use xlink:href="#XMLID_8_"  style="overflow:visible;"/>
				</clipPath>
				<polyline class="st6" points="107.6,139.1 107.6,152 116.8,142.1 117.1,156.5 127,145 128.5,160.1 138,146.5 143.5,163 
					149.7,147.3 				"/>
				<polyline class="st6" points="192.4,139.1 192.4,152 182.6,142.1 182,156.5 171.9,145 170.4,160.1 160.9,146.5 155.4,163 
					149.7,147.3 				"/>
			</g>
		</g>
	</g>
</g>
</svg>
